<svg xmlns="http://www.w3.org/2000/svg" viewBox="0 0 512 512"><path d="M256 512c-29.1 0-58.2-4.8-86.1-14.7c1.6-56 13.8-111.4 35.8-163.2c25.3-58.2 61.1-111.4 105.6-156.8c37.8-39 80-73 126.1-101.4c99.5 100.2 99.2 262.4-1.3 361.9c-48 47.7-113 74.2-180.5 74.2h0zM135.4 481.9h0c-10.9-5.8-21.1-12.2-31-19.5c-.6-57.6 10.2-115.2 32-168.3c24.6-58.6 60.8-111.4 106.2-155.8c41.6-41.3 88.6-76.2 139.8-104.6c9.3 5.4 18.6 11.2 27.2 17.9c-44.5 28.8-85.8 62.4-122.9 100.5c-47.7 48.6-86.1 105.3-113.3 167.7c-22.1 51.5-34.9 106.2-38.1 162.2h0zM69.8 431.7h0C-27.2 329-22.7 167 80.3 69.8C150.4 3.5 252.5-17.6 343.4 15.4c-45.1 27.2-87 59.8-124.5 97c-49 47.7-87.7 104.6-114.6 167.7c-20.2 48.3-31.7 99.8-34.2 152h0z"/></svg>