<svg xmlns="http://www.w3.org/2000/svg" viewBox="0 0 512 512"><path d="M91.8 512l33-70.7H62.1c-19.5 0-35.2-15.7-35.2-35.2V247c0-19.5 15.7-35.2 35.2-35.2h282.6c19.5 0 35.2 15.7 35.2 35.2v159c0 19.5-15.7 35.2-35.2 35.2H202.9l-33 70.7H91.8zM79.4 300.2H256V265H79.4v35.2zm406.1 88.3l-70.7-17.6v-88.3l70.7-17.6v123.5h0zM97 176.6c-34.2 0-61.8-27.5-61.8-61.8s27.5-61.8 61.8-61.8 61.8 27.5 61.8 61.8c0 9.3-1.9 18.2-6.1 26.6h67.8c-11.5-15.4-17.6-33.9-17.6-53.1c0-48.6 39.7-88.3 88.3-88.3s88.3 39.7 88.3 88.3-39.7 88.3-88.3 88.3H97zM238.4 88.3c0 29.1 23.7 53.1 53.1 53.1s53.1-23.7 53.1-53.1-23.7-53.1-53.1-53.1c-29.1 0-52.8 23.7-52.8 53.1h0zM70.7 114.9c0 14.7 11.8 26.6 26.6 26.6s26.6-11.8 26.6-26.6-11.8-26.6-26.6-26.6s-26.6 11.8-26.6 26.6h0z"/></svg>