<svg xmlns="http://www.w3.org/2000/svg" viewBox="0 0 512 512"><path d="M149.4 512h0c-37.8 0-75.2-5.8-111.4-17.6c-9.9-3.2-17.9-10.9-21.1-21.1C.6 420.8-4.2 365.1 3.8 310.4c19.2 40 45.1 76.2 76.2 107.8c36.2 36.2 78.1 66.6 123.5 89.6c-17.9 2.9-35.8 4.2-53.8 4.2zm111.4-17.6h0c-58.6-22.7-111.7-57-155.8-101.4c-39.7-40-69.8-89-87-143C54.1 138.2 142.4 50.9 254.7 16.3v1.3s0 0 0 0c16 3.2 31.7 8.3 46.7 15c37.1 16 71 38.7 99.8 67.2c43.8 45.1 76.2 100.2 93.4 160.6h0c-17.9 56-49 106.2-90.6 147.2c-40.3 39.4-89.3 69.1-143 86.4h0zM127 235.2c-4.8 0-9.3 1.9-12.5 5.4c-7 7-7 18.2 0 25.3l17.6 17.6c-7 9-14.4 18.6-21.8 28.8c-5.8 8-4.2 18.9 3.8 25c2.9 2.2 6.7 3.5 10.6 3.5c5.8 0 10.9-2.6 14.4-7.4c6.1-8.6 12.5-16.6 18.6-24.6l18.6 18.6c7 7 17.9 7 25 0c0 0 0 0 0 0c7-7 7-18.2 0-25.3l-21.1-21.4c5.1-6.1 9.9-11.8 14.7-17.3l16 16c6.7 7 17.9 7 25 0c0 0 0 0 0 0c7-7 7-18.2 0-25.3l-17-17c5.1-5.4 10.2-10.6 15.4-15.7l17.9 17.9c7 7 17.9 7 25 0c0 0 0 0 0 0c7-7 7-18.2 0-25.3l-17.3-17.6c5.4-5.1 11.2-10.2 17-15l21.8 22.1c7 7 17.9 7 25 0c0 0 0 0 0 0c7-7 7-18.2 0-25.3L304 158.7c9.9-7.7 20.2-15.4 30.1-22.7c8-5.8 9.9-16.6 4.5-25c-3.2-4.8-8.6-7.7-14.4-7.7c-3.5 0-7 1.3-10.2 3.2c-11.8 8.3-23.7 17.3-35.2 26.2l-16.6-16.6c-6.7-7-17.9-7-25 0c0 0 0 0 0 0c-7 7-7 18.2 0 25.3l14.4 14.4c-5.8 5.1-11.5 10.2-17 15.4L215.7 152c-7-7-17.9-7-25 0c0 0 0 0 0 0c-7 7-7 18.2 0 25.3l18.2 18.6c-4.8 5.1-9.9 10.2-15.4 15.7L174.4 192c-7-7-17.9-7-25 0c0 0 0 0 0 0c-7 7-7 18.2 0 25.3l20.2 20.5c-4.8 5.4-9.9 11.2-14.7 17.3l-15-15c-3.2-3.2-7.7-5.1-12.5-5.1zm382.1-38.7h0c-20.2-45.4-48.3-86.7-83.2-122.2c-30.4-30.1-65.6-54.4-104.6-72c48.6-5.4 97.9-1.3 144.6 12.8c14.7 4.5 26.2 16 30.7 30.7c14.7 49 18.9 100.2 12.5 150.7h0z"/></svg>