<svg xmlns="http://www.w3.org/2000/svg" viewBox="0 0 512 512"><path d="M256 512c-51.5 0-101.8-15.4-144.3-44.5c1.9-9.6 4.2-20.2 6.7-30.7c14.7 1.6 29.4 2.2 44.2 2.2c30.7 0 61.8-2.9 91.8-8.3l47 32c-7.4 17-16.6 33.3-27.2 48.6c-6.1 .3-12.2 .6-18.2 .6zm64.3-8h0l.6-1 1.6-2.6c6.7-12.8 12.2-24.6 15.4-32l69.4-46.4c12.5 1.9 25.3 3.2 38.1 2.9h3.8c-33.9 38.7-78.4 66.6-128.3 79.4h0zM80.6 442.6h0C48 411.8 24 373.1 10.9 329.9h22.4l52.5 89.6c-1.9 7.4-3.5 15.4-5.1 23h0zm242.9-7.7h0l-43.2-29.4 30.4-65.3h71.7l3.2 53.1-62.1 41.6h0zm-161-31.4c-15.7 0-31-1-46.7-2.6l-53.8-91.5c9.3-41 27.2-79.7 52.5-113.3l83.8-2.9 80.3 130.9-33.6 72.6c-27.5 4.8-55.4 7-83.2 7h0zm282.2-14.1c-8.3 0-16.3-.3-24.3-1.3l-3.5-57.9c22.4-31.4 39.7-65.6 51.5-102.4l43.5 19.5c0 2.9 0 6.1 0 9c0 46.1-12.5 91.5-36.2 131.2c-10.2 1.3-20.8 1.9-31 1.9h0zM391.7 305h-82.6l-79.7-129.9 39.4-66.9c9.9-1 30.1-2.6 55-2.6c18.6 0 36.5 1 53.4 2.6l61.4 97.3c-10.6 35.2-26.2 68.8-46.7 99.5h0zM29.4 294.7H2.9C1 281.9 0 268.8 0 256c0-49.3 14.1-97.6 41-138.9c2.6 0 5.4 0 8.3 0c13.1 0 26.2 1.9 39 5.4v49.6c-28.2 36.2-48 78.1-59.2 122.6h0zm478.1-84.8h0l-37.4-19.8-63-100.2 11.5-31.7c46.4 38.4 78.1 91.8 89 151.4h0zm-384-49.6h0v-41l65.9-42.9 44.2 21.4-35.2 60.2-74.6 2.6h0zM103.7 89.9h0c-11.8-3.5-24-5.8-36.2-7.4C101.1 46.1 144.6 20.2 192.6 8c-1.3 2.2-2.6 4.2-4.2 6.7c-7.7 12.8-13.4 24.6-16 30.4l-68.8 44.8h0zM264 73h0L210.9 47c2.9-5.8 5.8-10.6 8.3-14.7c16-27.5 25-31.4 25.9-31.7h0C249 0 252.5 0 256 0c47.4 0 93.8 13.1 134.1 37.8l-13.8 34.9c-17-1.6-34.9-2.2-53.1-2.2c-26.9 0-48.6 1.9-58.9 2.9h0z"/></svg>