<svg xmlns="http://www.w3.org/2000/svg" viewBox="0 0 512 512"><path d="M256 0C114.6 0 0 114.6 0 256s114.6 256 256 256c67.8 0 133.1-26.9 181.1-74.9s74.9-113.3 74.9-181.1C512 114.6 397.4 0 256 0zM121.3 396.5c-42.6-32-70.1-82.9-70.1-140.5s27.5-108.5 70.1-140.5l29.4 27.8C114.9 168 91.2 209.3 91.2 256s23.7 88 59.5 112.6l-29.4 27.8zm83.5-79.7L175.4 345c-26.9-20.5-44.2-52.8-44.2-89s17.3-68.5 44.2-89l29.4 28.2c-20.2 12.8-33.6 35.2-33.6 60.8s13.4 48 33.6 60.8zM256 304c-26.6 0-48-21.4-48-48s21.4-48 48-48 48 21.4 48 48-21.4 48-48 48zm80.6 41l-29.4-28.2c20.2-12.8 33.6-35.2 33.6-60.8s-13.4-48-33.6-60.8l29.4-28.2c26.9 20.5 44.2 52.8 44.2 89s-17.3 68.5-44.2 89zm54.1 51.5l-29.4-27.8c35.8-24.6 59.5-65.9 59.5-112.6s-23.7-88-59.5-112.6l29.4-27.8c42.6 32 70.1 82.9 70.1 140.5s-27.5 108.5-70.1 140.5z"/></svg>