<svg xmlns="http://www.w3.org/2000/svg" viewBox="0 0 512 512"><path d="M322.9 392.3c-75.2 18.9-154.9 5.1-219.2-38.1c-44.8-30.1-80.6-71.7-103.7-120.6c17-35.8 40.6-67.8 69.8-94.4L9.9 79.4l47.4-47 400.6 400.6-47.4 47.4-87.7-87.7zM76.5 233.6c17 25.9 38.7 48 64.3 65c16 10.9 33.6 19.2 52.2 25.3c-32.6-24.6-49.3-65-43.8-105.6l-31.7-31.7c-15.7 13.8-29.4 29.8-40.6 47h0zM441.9 328l-47.4-47.4c15.7-13.8 29.4-29.4 41-47c-17-25.9-38.7-48-64.3-65c-16-10.6-33.6-19.2-51.8-25.3c28.2 21.4 44.8 54.7 44.8 90.2c0 5.1-.3 10.2-1 15.4L189.1 75.2c75.2-18.9 154.9-5.1 219.2 38.1c44.8 30.1 80.6 71.7 103.7 120.6c-17 35.8-40.6 67.8-70.1 94.4h0z"/></svg>