<svg xmlns="http://www.w3.org/2000/svg" viewBox="0 0 448 512"><path d="M43.8 241.6c47.4 30.1 66.6 89.6 46.1 141.8c16.6 18.6 37.1 33.3 59.8 43.5c43.2-35.5 105.6-35.5 149.1 0c22.7-10.2 42.9-25 59.8-43.5c-20.5-52.2-1.3-111.4 46.1-141.8c-2.6-24.6-10.6-48.6-23-70.1c-56 3.5-106.6-33.3-120.6-87.7c-24.3-5.1-49.3-5.1-73.6 0c-14.1 54.4-64.6 90.9-120.6 87.7c-12.5 21.4-20.2 45.4-22.7 70.1M320 261.4c0 53.1-42.9 96-96 96s-96-42.9-96-96 42.9-96 96-96 96 42.9 96 96m-309.4-1h0c0-44.5 14.1-88 40.3-124.2c45.4 12.5 92.5-14.1 105-59.5c1.6-6.1 2.6-12.5 2.9-18.9c42.6-13.4 88-13.4 130.6 0c2.2 47 41.9 83.5 89.3 81.3c6.4 0 12.5-1.3 18.6-2.9c26.2 36.2 40.3 79.7 40.3 124.2c-44.2 16.6-66.2 65.9-49.6 110.1c2.2 5.8 5.1 11.5 8.6 16.6c-26.2 36.2-63 63-105.6 76.8c-29.4-36.8-83.2-42.9-120-13.4c-4.8 3.8-9.3 8.3-13.4 13.4c-42.2-13.8-79.4-40.6-105.6-76.8c25.9-39.4 15-92.2-24.3-118.1c-5.1-3.5-10.9-6.4-16.6-8.6h0zm277.4 1c0-35.2-28.8-64-64-64s-64 28.8-64 64 28.8 64 64 64s64-28.5 64-64c0 0 0 0 0 0h0z"/></svg>