<svg xmlns="http://www.w3.org/2000/svg" viewBox="0 0 512 512"><path d="M256 67.2c-110.4 1.3-210.2 66.6-256 167c45.8 100.5 145.6 165.4 256 167c110.4-1.3 210.2-66.6 256-167c-45.8-100.5-145.6-165.4-256-167zm0 211.5c-23.7-1-42.2-20.8-41.3-44.5c-1-23.7 17.6-43.5 41.3-44.5c23.7 1 42.2 20.8 41.3 44.5c1 23.7-17.6 43.5-41.3 44.5zM76.5 234.2c17-25.9 38.7-48 64.3-65c16.3-10.9 33.9-19.2 52.5-25.3c-27.8 20.2-45.8 53.1-45.4 90.2c-.6 37.1 17.6 70.1 45.4 90.2c-18.2-5.8-36.2-14.1-52.5-25.3c-25.6-17.3-47.4-39.4-64.3-65zm294.7 65c-16.6 11.2-34.2 19.5-52.5 25.3c27.8-20.2 46.1-53.1 45.4-90.2c.6-37.1-17.6-70.1-45.4-90.2c18.6 5.8 36.2 14.4 52.5 25.3c25.6 17.3 47.4 39.4 64.3 65c-17 25.9-38.7 48-64.3 65z"/></svg>