<svg xmlns="http://www.w3.org/2000/svg" viewBox="0 0 448 512"><path d="M373.4 128H288v-21.4c0-23.7-19.2-42.6-42.6-42.6h-42.6c-23.7 0-42.6 19.2-42.6 42.6V128H74.9c-23.7 0-42.6 19.2-42.6 42.6v234.6c0 23.7 19.2 42.6 42.6 42.6h298.6c23.7 0 42.6-19.2 42.6-42.6V170.6c0-23.7-19.2-42.6-42.6-42.6zM192 106.6c0-5.8 4.8-10.6 10.6-10.6h42.6c5.8 0 10.6 4.8 10.6 10.6V128h-64v-21.4zM74.6 160h298.6c5.8 0 10.6 4.8 10.6 10.6V192L313 262.7c-49.3 49.3-129.3 49.3-178.6 0L63.7 192v-21.4c0-5.8 4.8-10.6 10.6-10.6zM373.4 416H74.6c-5.8 0-10.6-4.8-10.6-10.6v-168l48 48c61.8 61.8 161.9 61.8 223.7 0l48-48v168c0 5.8-4.8 10.6-10.6 10.6z"/></svg>