<svg xmlns="http://www.w3.org/2000/svg" viewBox="0 0 512 512"><path d="M18.9 512C8.3 512 0 503 0 492.2V157.4h512v334.7c0 10.9-8.6 19.8-18.9 19.8H18.9zm341.4-59.2H455v-39.4h-94.7v39.4zm-151.7 0h94.7v-39.4h-94.7v39.4zM57 452.8h94.7v-39.4H57v39.4zm303.4-98.2H455v-39.4h-94.7v39.4zm-151.7 0h94.7v-39.4h-94.7v39.4zM57 354.6h94.7v-39.4H57v39.4zm350.7-90.2h0l20.2 20.8 26.9-27.8-20.2-20.8 20.2-20.8-26.9-27.8-20.2 20.8-20.2-20.8-26.9 27.8 20.2 20.8-20.2 20.8 26.9 27.8 20.2-20.8h0zm-199-8.3h94.7v-39.4h-94.7V256zM57 256h94.7v-39.4H57V256zM512 118.1H0V19.8C0 9 8.6 0 18.9 0h473.9c10.6 0 18.9 9 18.9 19.8v98.6zM398.1 88.6h57V29.4h-57v59.2zM57 88.6h57V29.4H57v59.2z"/></svg>