<svg xmlns="http://www.w3.org/2000/svg" viewBox="0 0 512 512"><path d="M197.8 368c-11.5-4.2-22.1-9.9-31.7-17.3s-17.6-16.3-24.3-26.2c-6.7-10.2-11.8-21.4-15-33.3c16.3-8.3 33.9-14.7 51.8-18.9c18.6-4.5 37.4-6.7 56.6-6.7c15.7 0 31.4 1.6 46.7 4.5c-1.6 3.8-2.9 8-3.8 12.2c-14.1-2.6-28.5-4.2-42.9-4.2c-17.9 0-35.8 2.2-53.4 6.4c-13.4 3.2-26.6 7.7-39 13.4c2.6 6.7 6.1 13.1 9.9 19.2c5.8 9 13.1 16.6 21.8 23.4s17.9 11.8 28.2 15.4c10.6 3.8 21.8 5.4 32.6 5.4c11.2 0 22.1-1.9 32.6-5.4c10.2-3.5 19.8-8.6 28.2-15.4c.3 0 .6-.6 1-1c3.2 2.9 7 5.4 10.9 7.7c-9.9 8.3-21.1 15-33.3 19.8c-12.5 4.8-25.9 7-39.4 7c-12.5 0-25-2.2-37.1-6.4zm91.5-73.6c0-26.6 21.4-48 48-48s48 21.4 48 48-21.4 48-48 48-48-21.4-48-48h0s0 0 0 0zm23-25c-6.7 6.7-10.2 15.7-10.2 25s3.8 18.2 10.2 25c6.7 6.7 15.7 10.2 25 10.2s18.2-3.8 25-10.2c6.7-6.7 10.2-15.7 10.2-25s-3.8-18.2-10.2-25c-6.7-6.7-15.7-10.2-25-10.2s-18.2 3.8-25 10.2h0zm-1 26.6l9-9 12.5 12.5 21.4-21.4 9 9-30.4 30.4-21.4-21.4zM180.5 188.8c0-30.1 24.3-54.4 54.4-54.4s54.4 24.3 54.4 54.4-24.3 54.4-54.4 54.4-54.4-24.3-54.4-54.4h0s0 0 0 0zm25-29.4c-7.7 7.7-12.2 18.2-12.2 29.4s4.5 21.8 12.2 29.4s18.2 12.2 29.4 12.2c10.9 0 21.8-4.5 29.4-12.2s12.2-18.2 12.2-29.4s-4.5-21.8-12.2-29.4s-18.2-12.2-29.4-12.2c-10.9 0-21.8 4.5-29.4 12.2h0z"/></svg>