<svg xmlns="http://www.w3.org/2000/svg" viewBox="0 0 512 512"><path d="M54.7 154.9v-50.2c0-27.5 22.4-49.9 49.9-49.9h50.2c6.4 0 11.5-5.1 11.5-11.5s-5.1-11.5-11.5-11.5h-50.2c-40 0-72.6 32.6-72.6 72.6v50.2c0 6.4 5.1 11.5 11.5 11.5S55 161 55 154.6h0zM154.9 457.3c6.4 0 11.5 5.1 11.5 11.5s-5.1 11.5-11.5 11.5h-50.2c-40 0-72.6-32.6-72.6-72.6v-50.2c0-6.4 5.1-11.5 11.5-11.5S55 351 55 357.4v50.2c0 27.5 22.4 49.9 49.9 49.9h50.2zM480 357.1v50.2c0 40-32.6 72.6-72.6 72.6h-50.2c-6.4 0-11.5-5.1-11.5-11.5s5.1-11.5 11.5-11.5h50.2c27.5 0 49.9-22.4 49.9-49.9v-50.2c0-6.4 5.1-11.5 11.5-11.5s11.5 5.1 11.5 11.5zm0-252.5v50.2c0 6.4-5.1 11.5-11.5 11.5s-11.5-5.1-11.5-11.5v-50.2c0-27.5-22.4-49.9-49.9-49.9h-50.2c-6.4 0-11.5-5.1-11.5-11.5s5.1-11.5 11.5-11.5H407c40 0 72.6 32.6 72.6 72.6h0zM334.4 363.2c5.1-4.2 5.8-11.5 1.6-16.6s-11.5-5.8-16.6-1.6c0 0-.6 .6-1 .6c-35.2 32.6-89.6 32.6-124.8 0c-4.5-4.8-12.2-4.8-16.6 0c-4.8 4.5-4.8 12.2 0 16.6c0 0 .6 .6 1 .6c44.5 41 112.6 41 157.1 0h0zM279.7 201v84.2c0 16.6-13.4 30.1-30.1 30.1H240c-6.4 0-11.8-5.1-12.2-11.5s5.1-11.8 11.5-12.2c0 0 .3 0 .6 0h9.6c3.5 0 6.4-2.9 6.7-6.7v-84.2c0-6.4 5.4-11.8 12.2-11.5c6.4 0 11.5 5.1 11.5 11.5h0zm81.3 33v-33.6c0-6.1-5.1-11.2-11.2-11.2s-11.2 5.1-11.2 11.2h0v33.6c0 6.1 5.1 11.2 11.2 11.2s11.2-5.1 11.2-11.2h0zm-207.4 0c0 6.1 5.1 11.2 11.2 11.2s11.2-5.1 11.2-11.2h0v-33.6c0-6.1-5.1-11.2-11.2-11.2s-11.2 5.1-11.2 11.2h0v33.6z"/></svg>