<svg xmlns="http://www.w3.org/2000/svg" viewBox="0 0 512 512"><path d="M119 211.2c-1.3-2.9-1-6.4 1-9c1-1.6 25.6-38.4 59.2-56.3s80-14.7 82.2-14.7c5.1 .3 9 4.5 9 9.6v34.6c15.7 5.1 32 8.3 48.6 9.3c23.7 0 62.1-11.5 62.7-11.5c5.1-1.6 10.6 1.3 11.8 6.4c.6 2.2 .6 4.8-.6 7c-12.5 24.6-29.8 46.4-50.6 64.6c-23.7 18.6-50.2 33.3-78.4 43.8c-5.1 1.9-10.6-.6-12.2-5.8c-.3-1-.6-2.2-.6-3.2v-24c-13.1 .6-25.9 3.5-38.4 8c-12.5 5.8-28.8 23-35.8 31.7l37.1 91.5-17.9 7.4-76.8-189.1zm69.1-48c-23 12.5-42.2 36.5-49.3 46.1l29.4 73c10.2-11.8 22.4-21.8 36.2-29.1c14.7-5.8 30.4-9 46.4-9.9v-92.5c-14.1 0-41.9 1.6-62.7 12.8h0zm81.9 108.5c21.4-9 41.3-20.8 59.5-35.2c13.1-11.2 24.6-24.3 34.2-39c-14.7 3.5-30.1 5.8-45.1 6.4c-16.3-.6-33-3.5-48.6-8.3v76.2z"/></svg>