<svg xmlns="http://www.w3.org/2000/svg" viewBox="0 0 512 512"><path d="M256 32C132.2 32 32 132.2 32 256s100.2 224 224 224h0c123.8 0 224-100.2 224-224S379.8 32 256 32zm0 431c-114.2 0-207-92.8-207-207h0c0-114.2 92.8-207 207-207s207 92.8 207 207s-92.8 207-207 207zm38.1-88.3c2.2 4.8 0 10.2-4.5 12.5c-21.4 9.9-42.9 11.8-60.5 3.8s-29.1-25.3-33-48.6l18.2-2.9c3.2 18.9 11.8 30.1 22.4 34.9c10.9 5.1 26.2 4.8 44.8-3.8c4.8-2.2 10.2 0 12.5 4.5c0 0 0 0 0 0zm-25.3-93.4v-38.1h17v55h-46.4v-17h29.4zM374.4 201c0 9.3-7.7 17-17 17s-17-7.7-17-17 7.7-17 17-17h0c9.3 0 17 7.7 17 17zm-202.9 0c0 9.3-7.7 17-17 17s-17-7.7-17-17s7.7-17 17-17h0c9.3 0 17 7.7 17 17z"/></svg>