<svg xmlns="http://www.w3.org/2000/svg" viewBox="0 0 512 512"><path d="M181.4 453.4c-22.7-9.6-43.5-23.4-60.8-41c-17.6-17.3-31.4-38.1-41-60.8c-9.9-23.7-15-49-15-74.6s5.1-50.9 15-74.6c9.6-22.7 23.4-43.2 41-60.8c17.3-17.6 38.1-31.4 60.8-41c19.5-8.3 40.3-13.1 61.8-14.7V62.4h-38.4V43.2h96v19.2h-38.4v23.4c23.4 .6 46.4 5.8 68.2 15c14.4 6.1 28.2 14.1 40.6 23.4l7.7-9.3-14.7-12.2 12.5-14.7 44.2 37.1-12.5 14.7-14.7-12.5-7.7 9.3c1.9 1.6 3.8 3.5 5.4 5.4c17.6 17.3 31.4 38.1 41 60.8c9.9 23.7 15 49 15 74.6s-5.1 50.9-15 74.6c-9.6 22.7-23.4 43.2-41 60.8c-17.3 17.6-38.1 31.4-60.8 41c-23.7 9.9-49 15-74.6 15s-50.9-5.1-74.6-15zm7.7-334.7c-20.5 8.6-39 21.1-54.7 36.8s-28.2 34.2-36.8 54.7c-9 21.1-13.4 43.8-13.4 66.9s4.5 45.8 13.4 66.9c8.6 20.5 21.1 39 36.8 54.7s34.2 28.2 54.7 36.8c21.1 9 43.8 13.4 66.9 13.4s45.8-4.5 66.9-13.4c20.5-8.6 39-21.1 54.7-36.8s28.2-34.2 36.8-54.7c9-21.1 13.4-43.8 13.4-66.9s-4.5-45.8-13.4-66.9c-8.6-20.5-21.1-39-36.8-54.7s-34.2-28.2-54.7-36.8c-21.1-9-43.8-13.4-66.9-13.4s-45.8 4.5-66.9 13.4zm89.3 222.4v-128h19.2v128h-19.2zm-67.2 0v-128h19.2v128h-19.2z"/></svg>