<svg xmlns="http://www.w3.org/2000/svg" viewBox="0 0 512 512"><path d="M303.4 38.7c-31.7-8-64.6-8.6-96.6-1.9c-2.6 .6-3.8 3.2-3.2 5.8c.6 2.2 2.9 3.8 5.1 3.5c30.7-6.4 62.4-5.8 92.5 1.9c72.6 17.9 131.2 72 154.9 143c8.6 28.2 13.1 57.6 13.4 87c0 2.6 1.9 4.5 4.5 4.5s4.5-1.9 4.5-4.5c0 0 0 0 0 0c0-30.1-4.8-60.2-13.8-89.3c-24.6-74.6-85.8-130.9-161.9-149.8zM183.7 52.5c2.6-.6 3.8-3.2 3.2-5.4c-.6-2.6-3.2-3.8-5.4-3.2c0 0 0 0 0 0c-33.6 9.3-81 41.3-110.1 84.2h0c-25.6 38.7-41.6 87.4-37.1 134.4h0c1 8.6 2.9 17.3 4.8 25.9c3.8 18.2 7.7 36.2 4.8 54.7c-.3 2.6 1.6 4.8 3.8 5.1c2.6 0 4.8-1.3 5.1-3.8c3.2-19.2-.6-38.1-4.5-57c-1.9-8.6-3.5-17.3-4.8-26.2c-4.2-44.5 10.9-90.9 35.8-128.3c28.2-41.3 73.6-71.7 105-80.3zm60.2 10.2c58.9-3.5 115.8 20.5 154.2 65.3c1.6 1.9 1.3 4.8-.6 6.4s-4.8 1.3-6.4-.6c-36.5-42.6-90.9-65.3-146.9-62.1h0c-71 4.2-133.1 49.9-158.4 116.5c-.6 2.6-3.5 3.8-5.8 2.9c-2.6-.6-3.8-3.5-2.9-5.8c0 0 0 0 0 0c26.6-70.1 91.8-118.1 166.7-122.6zm168.3 85.4c-1.3-2.2-4.2-2.9-6.4-1.6s-2.9 4.2-1.6 6.4c0 0 0 0 0 .3c21.4 32 30.4 66.9 33.9 108.2c0 2.6 2.6 4.5 5.1 4.2c2.6 0 4.5-2.6 4.2-5.1c-3.5-42.2-12.8-78.7-35.5-112.6zM444.5 280c2.6 0 4.8 1.9 4.8 4.2c1.9 27.5 1.6 55-1.3 82.2c-.3 2.6-2.9 4.2-5.4 3.8s-4.2-2.6-3.8-5.1c2.9-26.9 3.2-53.8 1.3-80.6c0-2.6 1.6-4.8 4.2-4.8zM79 210.9c.6-2.6-1-5.1-3.5-5.4c-2.6-.6-5.1 1-5.4 3.5c-3.5 14.1-5.1 28.5-5.1 42.9c.3 14.7 2.2 29.4 5.4 43.8c2.6 11.8 4.2 23.7 5.1 35.8c.6 16-2.2 32-8 46.7c-1 2.2 0 5.1 2.6 6.1c2.2 1 5.1 0 6.1-2.6c0 0 0 0 0 0c6.4-16 9.3-33.3 8.6-50.6c-1-11.8-2.6-23.7-5.1-35.5c-3.2-14.4-5.1-28.8-5.4-43.5c0-13.8 1.6-27.2 4.8-40.6zM199.7 108.5c1 2.2 0 5.1-2.6 6.1h0c-48.3 19.2-82.9 62.1-90.9 113.3c-1.9 21.1-1 42.6 3.5 63.4c1.9 11.8 3.8 23.7 4.5 35.5c2.9 27.8-3.5 56-18.2 80c-1.3 2.2-4.2 3.2-6.4 1.9s-3.2-4.2-1.9-6.4c0 0 0-.3 .3-.6c13.4-22.4 19.5-48.3 16.6-74.2c-.6-12.2-2.6-24-4.5-36.2c-4.5-21.4-5.4-43.2-3.5-65c8.6-54.4 45.1-100.5 96.3-120.6c2.2-1 5.1 0 6.1 2.6zm161.6 26.2c-38.4-34.6-91.2-48.3-141.8-36.8c-2.6 .3-4.2 2.6-3.8 5.1s2.6 4.2 5.1 3.8c0 0 .3 0 .6 0c47.4-10.9 97.3 1.9 133.4 34.2c29.8 27.8 46.7 68.2 51.5 112.3c0 2.6 2.2 4.5 4.8 4.2c2.6 0 4.5-2.2 4.2-4.8c0 0 0 0 0 0c-4.8-45.8-22.7-88.3-54.1-118.1zm53.1 139.8c2.6 0 4.8 1.6 5.1 4.2c0 0 0 0 0 0c4.2 44.2 2.6 89-4.2 132.8c-.3 2.6-2.9 4.2-5.4 3.8s-4.2-2.6-3.8-5.1c6.7-43.2 8-87 4.2-130.6c0-2.6 1.6-4.8 4.2-5.1zM254.1 125.4c-70.1-.6-127.4 55.7-127.7 125.8c0 7.4 .6 14.7 1.9 21.8c.3 2.6 2.6 4.2 5.1 3.8s4.2-2.6 3.8-5.1c0 0 0 0 0-.3c-1.3-6.7-1.9-13.4-1.9-20.2c.6-65 53.8-117.1 118.7-116.5c28.5 0 55.7 9.9 77.4 28.2c1.9 1.6 4.8 1.3 6.4-.6s1.3-4.8-.6-6.4h0c-23.4-19.8-52.8-30.4-83.5-30.4zm93.8 47.7c1.9-1.6 4.8-1.6 6.4 0c0 0 0 0 0 0c20.2 21.1 26.9 54.4 31 82.2c3.8 25.3 5.4 50.9 5.4 76.5c0 2.6-1.9 4.5-4.5 4.5s-4.5-1.9-4.5-4.5h0c0-25-1.9-50.2-5.4-74.9c-3.8-25.9-9.6-57.6-28.8-77.4c-1.6-1.9-1.6-4.8 0-6.4c0 0 0 0 0 0zm41.9 185.3c0-2.6-1.9-4.8-4.5-4.8s-4.5 1.6-4.8 4.2c-1.6 27.8-5.4 55.4-11.2 82.9c-.6 2.6 .6 5.1 3.2 5.8s5.1-.6 5.8-3.2c0 0 0 0 0-.3c5.8-27.8 9.6-55.7 11.5-84.2zM135.7 289.9c2.6-.6 4.8 1.3 5.4 3.5c9.6 49.3 2.9 94.4-22.7 133.4c-1.3 2.2-4.2 2.9-6.4 1.6s-2.9-4.2-1.6-6.4c0 0 0 0 0-.3c24.3-37.1 30.7-79.4 21.4-126.7c-.6-2.6 1-4.8 3.5-5.4c0 0 0 0 0 0zM254.1 155.5c-45.8 0-90.6 35.5-95.4 80c-1.3 19.5 0 38.7 3.5 57.9c2.9 16.6 4.5 33.6 4.2 50.6c-.6 34.9-12.2 69.1-32.6 97.3c-1.6 1.9-1.3 4.8 1 6.4s4.8 1.3 6.4-1c0 0 0 0 0 0c21.8-29.8 33.6-65.6 34.6-102.4c0-17-1.3-33.6-4.2-50.2c-3.5-18.9-4.8-38.4-3.5-57.6c4.2-39 44.2-71.7 86.1-71.7c19.5 0 70.1 10.6 86.1 62.7c9.9 32.6 12.8 77.1 10.2 120s-9.9 84.2-20.2 110.7c-1 2.2 0 5.1 2.6 6.1c2.2 1 5.1 0 6.1-2.6c0 0 0 0 0 0c10.6-27.5 18.2-69.8 20.8-113.6s0-89.3-10.9-123.5c-17.9-57.9-73.6-69.4-94.7-69.4zM183.4 427.2c2.2 1.3 2.9 4.2 1.3 6.4c-2.9 4.5-5.4 9-8 13.4s-5.1 9.3-8 13.4c-1.3 2.2-4.2 2.9-6.4 1.9c-2.2-1.3-2.9-4.2-1.9-6.4c0 0 0-.3 .3-.6c2.9-4.5 5.4-9 8-13.4s5.1-9.3 8-13.4c1.3-2.2 4.2-2.6 6.4-1.3zm39.4-224c2.2-1.3 2.6-4.2 1.3-6.4s-4.2-2.6-6.4-1.3c-18.6 11.2-29.8 31.7-29.4 53.4c0 13.1 1.9 26.2 5.1 38.7c4.2 18.2 6.4 36.8 6.1 55.4c-.3 21.8-5.1 43.5-13.8 63.7c-1 2.2 0 5.1 2.2 6.1s5.1 0 6.1-2.2c0 0 0 0 0 0c9-21.1 14.1-43.8 14.4-67.2c0-19.5-1.9-38.7-6.4-57.6c-3.2-12.2-4.8-24.3-5.1-36.8c-.6-18.9 9.3-36.2 25.3-45.8zm17.9-16.3c19.2-3.8 39.4 1 54.7 13.1c26.9 21.8 30.7 61.8 33.6 94.1v1.6c3.2 41.3 0 82.6-9 122.6c-.3 2.6-2.9 4.2-5.4 3.5c-2.6-.3-4.2-2.9-3.5-5.4c0 0 0 0 0 0c9-39.4 12.2-79.7 9-120c0-1.3 0-2.6-.3-4.2h0c-2.6-29.1-5.8-65.6-29.8-85.1c-13.4-10.6-30.4-14.7-47-11.2c-2.6 .6-4.8-1.3-5.4-3.5c-.3-2.6 1-4.8 3.5-5.4h0zm72.6 254.4c.6-2.6-1-4.8-3.5-5.4c-2.2-.6-4.8 1-5.4 3.2c-2.6 10.6-7 20.5-12.5 29.8c-1.3 2.2-.6 5.1 1.3 6.4c2.2 1.3 5.1 .6 6.4-1.3c0 0 0 0 0 0c6.1-9.9 10.6-20.8 13.4-32.3zm-22.4-66.6c2.6 0 4.5 2.6 4.2 5.1c0 0 0 0 0 0c-3.5 34.2-13.8 67.5-29.8 97.9c-1.3 2.2-4.2 2.9-6.4 1.9c-2.2-1.3-2.9-4.2-1.9-6.4h0c15.7-29.4 25.6-61.4 28.8-94.4c0-2.6 2.6-4.2 5.1-4.2c0 0 0 0 0 0zm-1-128c-3.2-17.3-17.9-29.8-35.5-30.1c-20.5 .6-36.8 17.9-36.2 38.4c0 2.9 .6 5.4 1.3 8.3c9.9 37.4 11.5 76.8 4.8 115.2h0c-5.4 31.4-16.3 61.1-32.6 88.3c-1.3 2.2-.6 5.1 1.6 6.4s4.8 .6 6.1-1.6c17-28.2 28.5-59.2 33.9-91.5c7-39.7 5.1-80.3-5.1-119h0c-4.2-15 4.8-30.4 19.8-34.2c1.9-.6 4.2-1 6.1-1c13.1 0 24.3 9.6 26.6 22.4c6.7 34.9 9.3 70.4 7.7 105.9c0 2.6 1.9 4.8 4.5 4.8s4.5-1.6 4.8-4.2c1.9-36.2-.6-72.6-7.7-108.2h0zm-49.3 199c2.2 1.3 3.2 3.8 1.9 6.1l-12.2 23.7c-1.3 2.2-3.8 3.2-6.1 1.9s-3.2-3.8-1.9-6.1c0 0 0 0 0 0l12.2-23.7c1.3-2.2 3.8-3.2 6.1-1.9c0 0 0 0 0 0zm17-194.9c-.6-2.6-3.2-4.2-5.4-3.5s-4.2 3.2-3.5 5.4h0c15.4 65.9 13.4 124.2-5.4 173.4c-1 2.2 0 5.1 2.6 6.1s5.1 0 6.1-2.6c0 0 0 0 0 0c19.8-51.5 21.8-111.4 5.8-178.9z"/></svg>