<svg xmlns="http://www.w3.org/2000/svg" viewBox="0 0 512 512"><path d="M464 483.2L353.9 373.1c-16.6 15-35.5 26.9-56.3 35.5c-22.7 9.3-47.4 14.1-72 14.1s-49-4.8-72-14.1c-23.7-9.6-45.1-24-63.4-41.9s-32.3-39.7-41.9-63.4c-9.3-22.7-14.1-47.4-14.1-72s4.8-49 14.1-72c9.6-23.7 24-45.1 41.9-63.4s39.7-32.3 63.4-41.9c22.7-9.3 47.4-14.1 72-14.1s49 4.8 72 14.1c23.7 9.6 45.1 24 63.4 41.9s32.3 39.7 41.9 63.4c9.3 22.7 14.1 47.4 14.1 72s-4.8 49-14.1 72c-8.3 20.8-20.5 39.7-35.5 56.3l110.1 110.1-13.4 13.4zM66.2 166.4c-8.3 20.5-12.5 42.6-12.5 64.6s4.2 44.2 12.5 64.6c8.6 21.4 21.4 40.6 37.8 57s35.5 29.1 57 37.8c20.5 8.3 42.6 12.5 64.6 12.5s44.2-4.2 64.6-12.5c21.4-8.6 40.6-21.4 57-37.8s29.1-35.5 37.8-57c8.3-20.5 12.5-42.6 12.5-64.6s-4.2-44.2-12.5-64.6c-8.6-21.4-21.4-40.6-37.8-57s-35.5-29.1-57-37.8c-20.5-8.3-42.6-12.5-64.6-12.5s-44.2 4.2-64.6 12.5c-21.4 8.6-40.6 21.4-57 37.8s-29.1 35.5-37.8 57h0zM277.1 296.3l-51.5-51.5-51.5 51.5-13.4-13.4 51.5-51.5-51.5-51.5 13.4-13.4 51.5 51.5 51.5-51.5 13.4 13.4-51.5 51.5 51.5 51.5-13.4 13.4z"/></svg>