<svg xmlns="http://www.w3.org/2000/svg" viewBox="0 0 512 512"><path d="M384.3 150.7c-1.6-1.6-4.2-2.2-6.4-1.3l-247.7 82.2c-2.2 .6-4.2 2.9-4.5 5.4c0 2.6 1 4.8 3.2 6.1l70.7 42.9s.6 1.9 1.3 2.6c0 0 .3 .3 .6 .6v54.4c0 2.6 1.3 4.8 3.5 5.8s4.8 1 6.7-.6l40.3-31 70.1 44.5s2.2 1 3.5 1c.6 0 1.6 0 2.2-.3c1.9-.6 3.2-2.2 3.8-4.2l54.7-201c.6-2.2 0-4.8-1.9-6.4zM147.2 239.4l196.8-65.3-110.1 81.9-26.6 19.8-59.8-36.2zm66.6 53.8l26.6 17-26.6 20.5v-37.4zm107.5 53.4l-65.6-41.3h0s-35.8-23.4-35.8-23.4l21.1-15.7 127.4-94.7-47.4 175z"/></svg>