<svg xmlns="http://www.w3.org/2000/svg" viewBox="0 0 512 512"><path d="M339.5 433.3l-55.4 50.6-55.7-50.6-58.2 50.6-53.8-48.3-54.4 48.3c-2.6 0-4.5-1.9-4.5-4.5h0V117.4c0-2.6 1.9-4.5 4.5-4.5h330.6c2.6 0 4.5 1.9 4.5 4.5v361.9c0 2.6-1.9 4.5-4.5 4.5l-52.8-50.6zM170.2 466.9l58.2-50.6 55.4 50.2 55.7-50.9 44.5 42.6V125.8H70.1v333.8l46.1-41 53.8 48.3zM214.4 343c0-7.7 6.4-14.1 14.1-14.1s14.1 6.4 14.1 14.1-6.4 14.1-14.1 14.1h0c-7.7 0-14.1-6.4-14.1-14.1h0zm37.4-57.9c-4.5-3.2-8.6-6.7-12.8-10.6l9.3-9c3.5 3.2 7 6.4 10.9 9.3c8 5.4 15.4 8.6 21.4 8.6c7.7 0 15.7-4.8 21.1-8.6c3.5-2.6 7-5.8 10.2-9l9.6 8.6c-3.8 3.8-7.7 7.4-12.2 10.6c-9.9 7.4-19.5 11.2-28.5 11.2s-18.6-3.8-29.1-10.9h0zm-104.3 0c-4.5-3.2-8.6-6.7-12.8-10.6l9.3-9c3.5 3.2 7 6.4 10.9 9.3c8 5.4 15.4 8.6 21.4 8.6c7.7 0 15.7-4.8 21.1-8.6c3.5-2.6 7-5.8 10.2-9l9.6 8.6c-3.8 3.8-7.7 7.4-12.2 10.6c-9.9 7.4-19.5 11.2-28.5 11.2s-18.6-3.8-29.1-10.9h0zm202.6-80.3V192h19.2v12.8h-19.2zm-38.4 0V192h19.2v12.8h-19.2zm-38.4 0V192h19.2v12.8h-19.2zm-38.4 0V192h19.2v12.8h-19.2zm-38.4 0V192h19.2v12.8h-19.2zm-38.4 0V192h19.2v12.8h-19.2zm-38.4 0V192h19.2v12.8h-19.2zm-38.4 0V192h19.2v12.8H81.3zM418.6 151l-4.5-10.9 20.8-20.8h-16.3v-12.8h31.7l4.5 10.9-20.8 20.8h16.3V151h-31.7zM359.7 79.7l-4.5-10.9 33.6-33.6h-29.1V22.4h44.5l4.5 10.9-33.6 33.6h29.1v12.8h-44.5z"/></svg>