<svg xmlns="http://www.w3.org/2000/svg" viewBox="0 0 512 512"><path d="M386.2 87.4c-1.9 0-3.5-.3-5.1-1.3c-77.8-42.2-171.8-42.2-249.6 0c-5.4 2.9-12.2 1-15.4-4.5c-2.9-5.4-1-12.2 4.5-15.4c84.5-45.8 186.2-45.8 270.7 0c5.4 2.9 7.4 9.9 4.5 15.4c-1.9 3.5-5.8 5.8-9.6 5.8h0zM65.9 204.8c-2.2 0-4.5-.6-6.4-1.9c-5.1-3.5-6.4-10.6-2.9-15.7c0 0 0 0 0 0c21.8-31 50.6-56 83.8-73.3c72.6-36.5 158.1-36.5 231 0c33.6 17.3 62.4 42.2 83.8 73c3.5 5.1 2.2 12.2-2.9 15.7s-11.8 2.2-15.4-2.6c-19.5-27.8-45.8-50.2-75.8-65.9c-66.2-33-144.3-33-210.6 0c-30.4 15.7-56.3 38.4-76.2 66.2c-1.9 3.2-5.1 4.8-8.6 4.8zM205.8 475.2c-2.9 0-5.8-1.3-7.7-3.5c-18.2-17-33.3-37.1-45.1-59.2c-16-29.8-24-63.4-23.4-97.3c0-66.6 57-120.6 126.7-120.6S383 248.6 383 315.2c0 6.1-5.1 11.2-11.2 11.2s-11.2-5.1-11.2-11.2c0-54.1-46.7-98.2-104.3-98.2S152 261.1 152 315.2c-.6 30.1 6.7 59.8 20.8 86.1c10.9 20.2 24.6 38.4 41.3 54.1c4.2 4.5 4.2 11.5 0 16c-2.2 2.2-5.1 3.2-8.3 3.5zm160.6-41.3c-24.6 .6-49-6.4-69.4-19.8c-33-21.8-53.1-58.9-53.4-98.2c0-6.1 5.1-11.2 11.2-11.2s11.2 5.1 11.2 11.2h0c0 32.3 16.6 62.1 43.5 79.7c17 10.9 36.8 16.6 57 16c7.7 0 15.7-1 23.4-2.2c6.1-1.3 11.8 2.9 13.1 9s-2.9 11.8-9 13.1c0 0 0 0 0 0c-9 1.6-17.9 2.6-27.2 2.6zM321.3 480s-1.9 0-2.9-.3c-31.7-7.7-60.5-24-83.2-47c-31.4-30.7-48.6-73-48.6-116.8c1.9-38.1 34.2-67.5 72.3-65.6c35.5 1.6 64 30.1 65.6 65.6c1.9 25.6 24.3 45.1 49.9 43.2c23-1.6 41.3-20.2 43.2-43.2c0-84.5-72.6-153-162.2-153c-63.7 0-121.9 35.5-148.2 90.2c-9 19.5-13.4 41-13.1 62.7c0 27.5 5.1 55 15 81c2.2 5.8-.6 11.8-6.1 14.1c0 0 0 0-.3 0c-5.8 2.2-12.2-.6-14.4-6.4c0 0 0 0 0 0c-10.9-28.5-16.3-58.2-16.3-88.6c-.3-25 4.8-49.9 15.4-72.6c29.8-62.4 96-103 168.3-103c101.8 0 185 78.7 185 175.4c-1.9 38.1-34.2 67.5-72.3 65.6c-35.5-1.6-64-30.1-65.6-65.6c-1.9-25.6-24.3-45.1-49.9-43.2c-23 1.6-41.3 20.2-43.2 43.2c0 38.1 15 74.2 41.9 101.1c20.2 20.5 45.4 34.9 73.3 41.3c6.1 1.6 9.6 7.7 8 13.8c0 0 0 0 0 0c-1 4.8-5.4 8.6-10.6 8.6h0z"/></svg>