<svg xmlns="http://www.w3.org/2000/svg" viewBox="0 0 512 512"><path d="M256 512C114.6 512 0 397.4 0 256S114.6 0 256 0s256 114.6 256 256c0 67.8-26.9 133.1-74.9 181.1c-48 48.3-113 75.2-181.1 74.9zm0-476.8c-92.5 0-167.7 75.2-167.7 167.7s75.2 167.7 167.7 167.7 167.7-75.2 167.7-167.7h0c0-92.5-75.2-167.7-167.7-167.7zm0 300.2c-73.3 0-132.5-59.2-132.5-132.5S182.7 70.4 256 70.4 388.5 129.6 388.5 202.9h0c0 73-59.2 132.5-132.5 132.5zm0-236.8c-10.9 0-21.8 1.6-32 6.1c-8 3.5-14.7 9-19.5 16.3c-4.2 6.7-6.4 14.7-6.4 22.4c-.6 15 7.7 29.4 21.4 35.8c-7.7 3.5-14.1 9-18.9 16c-4.5 7.4-6.7 16-6.7 24.6c0 9.9 2.6 19.8 8.3 28.2c5.8 8 13.4 14.1 22.4 17.9c20.2 8.3 42.6 8.3 62.4 0c9-3.8 16.6-9.9 22.4-17.9c5.8-8.3 8.6-17.9 8.3-28.2c0-8.6-2.2-17-6.7-24.3c-4.8-7-11.2-12.8-18.9-16.3c6.4-3.5 11.8-8.3 15.7-14.4c3.8-6.4 6.1-14.1 5.8-21.4c0-8-2.2-15.7-6.4-22.4c-4.8-7-11.5-12.8-19.5-16.3c-9.9-4.2-20.8-6.4-32-6.1h0zm0 141.8c-6.4 0-12.8-1.9-17.6-6.1c-4.5-4.2-6.7-9.9-6.4-15.7c0-6.1 2.2-12.2 6.7-16c4.8-4.2 11.2-6.1 17.3-5.8c6.1 0 12.5 1.9 17 6.1s6.7 9.9 6.4 16c0 5.8-1.9 11.5-6.4 15.7c-4.8 4.2-10.9 6.4-17.3 6.1h0zm0-71.4c-5.1 0-10.2-1.6-14.1-5.1c-3.8-3.8-5.8-9-5.4-14.1c0-11.2 9.6-20.2 20.8-19.8c4.8 0 9.6 1.9 13.1 5.1c3.8 3.8 5.8 9.3 5.4 14.4c0 5.1-1.9 10.2-5.4 14.1c-3.8 3.5-9 5.4-14.4 5.4z"/></svg>