<svg xmlns="http://www.w3.org/2000/svg" viewBox="0 0 512 512"><path d="M257.3 512c-4.5 0-9 0-13.8-.3l-44.2-72.3 18.6-47.4 134.4-26.2 36.8 29.8-20.8 90.9c-34.6 17-72.6 25.6-111 25.6zm-59.2-6.7h0c-31.7-7.4-61.4-21.1-87.7-39.7l60.5-4.8 27.2 44.5h0zm212.2-44.5h0l13.8-59.8 51.8-13.1c-17 28.5-39 53.1-65.6 73h0zm.3-93.1h0l-36.2-29.1 15.4-132.2 41.3-25.3 78.1 36.2c1.9 12.8 2.9 25.6 2.9 38.7c0 30.7-5.4 61.4-16.3 90.2L410.6 368h0zM212.2 357.1h0l-58.6-111.7 84.2-98.2 116.8 59.2-14.7 125.8-127.4 24.6h0zM67.8 256.3l54.1 4.2 62.7 119.7-17.9 45.4-94.1 7.4c-27.8-29.1-48.3-64.3-59.8-102.7l54.7-73.9zM14.1 172.5C4.8 198.7 0 226.9 0 256C0 265.3 0 274.2 1.6 283.5l35.5-47.7-23-63.4zM200.6 72l-88-28.5c-32 21.4-58.6 49.9-78.1 83.2l34.2 94.4 53.8 4.2 87.7-102.4-9.6-50.9zM255 0c-35.5 0-68.8 7-99.2 20.2L213.8 39 257 0h-2.2zM449 87.4v63l49.6 23.4c-10.9-32.3-28.2-61.4-49.6-86.4zM237.8 66.6l8.6 45.4 126.1 64 41-25.3V54.1c-30.7-24.3-67.2-41.6-106.9-49.3l-69.1 61.8zM413.4 54.1h0s1.6 1 2.2 1.6c-.6-.6-1.6-1-2.2-1.6z"/></svg>