<svg xmlns="http://www.w3.org/2000/svg" viewBox="0 0 512 512"><path d="M141.4 512v-17.6c0-9.6 8-17.6 17.6-17.6h17.6v-17.6c0-9.6 8-17.6 17.6-17.6h123.5c9.6 0 17.6 8 17.6 17.6v17.6H353c9.6 0 17.6 8 17.6 17.6V512H141.1zm70.4-105.9v-17.6c0-9.6 8-17.6 17.6-17.6v-35.2c-34.9-2.9-66.2-21.1-85.8-50.2c-.6 1.9-1.3 3.8-1.9 5.8c-4.8 10.9-14.4 19.5-25.6 23.4c-6.4 2.2-13.4 3.5-20.2 3.2c-6.7 0-13.8-1-20.5-2.6c-9.6-2.2-15.4-11.8-13.1-21.1c1.9-8 9-13.8 17.3-13.4c1.3 0 2.9 0 4.2 .6c14.7 3.5 23.7 .6 25.6-3.8c1.6-3.5-.6-9.6-7.4-14.1c-.3 0-.6-.3-1-.6c-13.8-10.2-27.5-19.2-39.7-26.9c-17.6-9.9-33.6-22.1-47.4-36.5C0 182.7-3.8 159.7 4.2 139.8c4.8-13.4 14.7-24.6 27.5-30.7c23.7-8.6 49.9-9.6 74.2-2.6V70.4h300.2v36.2c24.3-7 50.2-6.1 74.2 2.6c13.1 6.1 23 17 27.5 30.7c8 19.8 4.5 42.6-9.6 58.9c-13.8 14.4-30.1 26.9-47.4 36.5c-12.2 7.7-25.9 16.6-39.7 26.9c-.3 0-.6 .3-1 .6c-7 4.5-9 10.6-7.4 14.1c1.9 4.5 10.6 7.4 25.6 3.8c1.3-.3 2.9-.6 4.2-.6c9.6 0 17.6 7.7 17.6 17.6c0 8.3-5.4 15.4-13.4 17.3c-6.7 1.6-13.4 2.6-20.5 2.6c-6.7 0-13.8-1-20.2-3.2c-13.4-4.5-24-15.4-27.8-29.1c-19.5 28.8-50.9 47.4-85.8 50.2h0v35.2c9.6 0 17.6 8 17.6 17.6v17.6h-88.3zM406.1 143.4v45.1c0 13.4-2.6 26.6-7 39c11.5-8.3 22.7-15.4 32.6-21.8c14.4-8 27.5-17.9 39.4-29.4c6.1-6.7 7.7-16.6 3.5-24.6c-1.6-4.8-5.1-8.6-9.6-10.6c-6.7-2.9-13.8-4.2-20.8-3.8c-13.1 .3-25.9 2.2-38.4 6.1zM47 141.1c-4.5 1.9-8 5.8-9.6 10.6c-4.2 8.3-2.6 17.9 3.5 24.6c11.8 11.5 25 21.4 39.4 29.4c9.9 6.4 21.1 13.4 32.6 21.8c-4.2-12.5-6.7-25.6-7-39v-45.1c-12.5-3.5-25.3-5.4-38.1-5.8c-7 0-14.1 1-20.8 3.8h0zM105.9 35.2c-9.6 0-17.6-8-17.6-17.6S96.3 0 105.9 0h300.2c9.6 0 17.6 8 17.6 17.6s-8 17.6-17.6 17.6H105.9z"/></svg>