<svg xmlns="http://www.w3.org/2000/svg" viewBox="0 0 512 512"><path d="M406.1 458.9c0-29.1 23.7-53.1 52.8-53.1s52.8 23.7 52.8 53.1-23.7 53.1-52.8 53.1-52.8-23.7-52.8-53.1zM44.2 503L8.6 467.5C-2.6 457.3-3.2 440 7 428.8l121.3-111.4c8.3-8.3 2.2-28.2-.6-36.2c-12.2-18.6-20.5-39.7-24.3-61.4l188.5 188.5c-22.1-3.8-42.9-12.2-61.4-24.3c-6.4-2.2-27.5-9.3-36.2-.6L82.9 504.6c-4.8 4.8-11.2 7.4-17.9 7.4c-8 0-15.4-3.2-20.8-9h0zm293.4-96L105 174.4c5.1-21.1 14.4-41 27.2-58.6c14.1-19.8 30.1-38.4 47.7-55.4C217 23 267.2 1.3 320 0c102.7-3.2 188.8 77.8 192 180.5c0 3.8 0 7.7 0 11.5c-1.3 52.8-23 102.7-60.5 139.8c-17 17.6-35.5 33.6-55.4 47.7c-17.6 12.8-37.4 22.1-58.6 27.2h0z"/></svg>