<svg xmlns="http://www.w3.org/2000/svg" viewBox="0 0 512 512"><path d="M85.4 448h0c-25.3-22.7-46.1-50.2-60.5-81.3c11.8-29.4 27.5-57.6 46.7-82.9c19.8-26.2 43.5-49.6 70.4-68.5c29.4-20.5 62.4-35.2 97.6-43.2c4.5 25.3 5.1 51.5 1.6 77.1c-28.5 12.2-54.7 28.8-77.8 49.6c-23.7 20.8-42.9 46.4-56.6 74.6c-11.2 23.4-18.6 48.6-21.4 74.6h0zM417 412.8c-14.7 0-29.4-1-44.2-2.9c-32.6-3.8-64.3-12.8-94.4-26.9c-32.3-15.4-61.8-36.8-86.1-63c19.8-17 42.2-30.4 66.6-40h0c23.7 17 49.6 30.4 77.4 39.4c24.3 8 49.9 12.2 75.5 12.5c5.8 0 11.5 0 17-.6c26.6-2.2 52.5-8.6 76.8-19.5c-8 35.5-23 69.1-44.8 98.6c-14.7 1.9-29.4 2.9-44.2 2.9h0zM7.7 319h0C-1 285.1-2.2 249.6 3.2 215c36.2-47.7 109.8-128.3 197.8-132.5c12.8 16.6 22.7 35.5 29.4 55.4c-39.4 9-76.5 25.6-109.4 49c-30.1 21.4-56.6 47-78.4 76.8c-13.1 17.6-24.6 35.8-34.9 55.4h0zm404.8-22.7c-12.8 0-25.3-1.3-37.8-3.8c11.8-38.7 16-79 12.5-119.4c-3.5-36.5-12.5-72.3-27.2-106.2c-8.3-19.2-17.9-38.1-29.1-55.7c34.2 10.6 65.9 28.2 93.1 51.8c14.4 34.9 24.3 71 29.8 108.5c7 41.9 1.3 84.8-17 123.5c-8 1-16.3 1.6-24.6 1.6h0zM480 284.2h0c7.4-22.4 11.2-45.8 11.5-69.4c.3-24.6-1.9-49.3-7-73.3c18.2 35.8 27.5 75.5 27.2 115.5c0 4.2 0 8.3 0 12.5c-10.2 5.8-20.8 10.9-31.7 15h0zm-139.5-1h0c-22.7-8.3-44.5-19.8-64-34.6c3.5-30.4 2.2-61.1-4.2-91.2c-6.4-30.7-18.6-60.2-36.2-86.4c-15.7-23-35.5-42.9-58.2-58.9c-13.8 4.5-26.9 9.9-39.7 16.6c11.5 6.4 22.1 13.8 32.3 22.1c-23 4.8-45.4 13.1-65.9 24.6c-25 14.1-48.3 31-69.1 50.9c3.8-6.4 8-12.8 12.5-19.2c15.4-21.8 34.2-41 55.7-56.6C161.9 7 236.8-9.6 308.5 5.4c-9-1.9-18.2-3.2-27.5-4.2c19.2 24.6 35.2 51.8 47.4 80.6c12.8 30.4 21.1 62.4 24 95.4c2.9 35.8-1 71.7-11.5 105.9h0zm76.8 165.1c-16 0-31.7-1-47.7-2.9c-36.5-4.2-72-14.1-105.3-29.8c-36.5-17-69.4-41-97-70.4c-13.8 16-25 33.9-33.3 53.4c23 33.3 55.4 58.9 92.8 73.6c33.9 14.4 69.1 24.3 105.6 29.4c34.9-10.6 66.6-28.8 94.1-53.4h-9.3zM121.9 441c-1.9 10.9-2.9 21.8-2.9 32.6c33.9 21.4 72.3 34.6 112 38.4c-18.9-7-37.1-15.7-54.4-26.2c-20.2-12.2-38.7-27.2-54.4-44.8z"/></svg>