<svg xmlns="http://www.w3.org/2000/svg" viewBox="0 0 512 512"><path d="M360.6 489.6h0c23.7-73.3 17-130.9-20.2-170.9c-1.3-1.6-2.9-2.9-4.2-4.5c10.6-12.5 20.8-25.3 30.1-38.1c38.1 37.8 71.7 79.7 100.5 124.8c-26.6 38.7-63.4 69.1-106.2 88.3h0zm-.3-267.2h-.6s-4.8-4.8-4.8-4.8C311 179.5 263 146.9 211.5 120C170.2 98.2 126.7 81 81.9 68.5C128 25.3 188.5 1 251.5 0c24 54.1 55.7 105 93.4 150.4c10.9 12.8 22.7 25 35.2 36.2c-3.2 6.1-6.1 11.8-9 17c-3.5 6.4-7.4 12.8-11.2 18.9h0zM146.2 258.2c32.6-.3 65.3 2.9 97 9.9c23 4.8 44.8 13.1 65 24.6c11.2-13.1 22.1-26.6 32.3-41c-1.9-1.6-5.1-4.2-8-7c-41.6-36.2-87.4-67.2-136-92.8c-45.1-24-92.8-41.9-142.1-53.8c-35.2 44.8-54.4 100.5-54.4 157.8c0 5.8 .3 11.5 .6 17c42.6-8.3 85.8-13.1 129-14.4c5.8 0 11.2 0 16.6 0zm168.6 81.3l-1-.6c-5.1 5.4-10.9 11.2-16.3 16.6c-50.6 48.3-107.2 89.6-169.3 122.2c37.4 21.8 81.3 34.2 127.7 34.2c20.8 0 41.6-2.6 61.8-7.7l2.6-6.7c27.5-71.4 25.6-124.2-5.1-157.8h0zm-29.4-21.8c-42.9-19.5-89.9-28.5-137-25.9h-15c-42.9 1.3-86.1 6.1-128.3 14.7c11.8 59.5 44.5 111.7 89.9 148.5c65-32.3 124.5-73.9 177-123.8c4.8-4.8 9.3-9.3 13.4-13.4zm148.2-92.5s-1.3-.6-1.9-1h-.3s-.6-.6-.6-.6c-7.4-4.5-14.7-9.3-22.4-14.4c-1.3 2.2-2.6 4.8-3.8 7.4h-.3s-1 2.6-1 2.6c-5.4 9.3-10.9 18.6-16.6 27.5c37.4 36.8 70.7 77.1 100.2 120.6c11.5-24.3 19.2-50.2 23-76.8c1.9-13.4 2.6-26.6 1.9-39.4c-27.8-3.2-54.1-11.8-78.1-25.9zm13.8-30.4s1.6 1 2.6 1.6c18.2 10.6 38.1 17.6 58.9 20.8c-6.7-46.4-26.6-89.3-56-124.5c-6.7 29.8-16.6 58.6-29.4 86.4c7.7 5.8 15.7 10.9 24 15.7zM422.1 64.6v-3.2c-35.8-31-81-52.5-131.8-59.2c21.4 45.8 48.6 88.6 81 127.7c8 9 16 17.6 24 25.3c12.8-28.8 21.8-59.2 26.9-90.6z"/></svg>