<svg xmlns="http://www.w3.org/2000/svg" viewBox="0 0 512 512"><path d="M157.4 512c-12.5 0-24-5.4-32.3-14.7L16.3 388.2c-14.7-12.2-20.2-32.3-13.8-50.6c9.3-21.8 23-41.6 40.3-57.6c18.9 41.6 45.4 79.4 77.8 111.7c32.6 32.3 70.1 58.9 111 79c-31.7 28.5-54.4 41-74.2 41zm101.1-66.9h0c-42.2-19.2-80.6-45.4-113.6-77.8c-33-33-58.9-72.3-76.5-115.5c-5.8-40.3-5.4-81.6 1.3-121.9c4.2-27.5 16-53.4 33.6-75.2c16.6-19.5 41.3-30.7 67.2-30.7c8 0 16 1 23.7 2.9c1 .3 1.9 .6 2.9 1c20.5 6.4 36.5 23 41.9 44.2c4.5 12.5 2.2 26.6-5.8 37.4c-9.9 8.6-23 12.8-36.2 11.5c-13.1 0-25.9-2.2-38.7-5.4c-9.3-1.9-18.6 3.8-20.8 13.4c-1.9 9 3.5 17.9 12.2 20.5c14.7 3.8 29.8 6.1 44.8 6.4c1 1.6 1.9 2.9 3.2 4.2l142.7 143.4c6.7 7 17.6 7 24.6 .6c7-6.7 7-17.6 .6-24.6c0 0-.3-.3-.6-.6L235.8 148.8c8.3-3.5 16-8.6 22.1-15c17.3-19.2 22.7-46.7 14.4-71c-4.5-15.4-12.5-29.8-23.4-41.6c7.7-7 17-12.5 26.9-16.3c10.9-2.9 21.8-4.2 33-4.5c54.1 0 95.4 36.8 129.9 71.4l2.6 2.6c22.1 19.8 40.6 42.9 56 68.2c15 29.1 18.6 62.7 9.9 94.4c-8.3 36.8-38.7 73.9-92.8 113.9c-48.3 33.9-98.6 64.3-151 91.5l-4.5 2.2h-.3s0 .6 0 .6h0z"/></svg>