<svg xmlns="http://www.w3.org/2000/svg" viewBox="0 0 512 512"><path d="M2.9 512h0l75.2-100.8 25 25.3L2.9 512h0zm137.6-99.5h0l-37.4-37.8 98.2-89 25.6 30.4-86.1 96.3h0zm255-182.1h0l-76.8-17.3-12.8 14.4-21.1-17.6 15.7-14.1-17.6-78.7L399.4 0l92.2 20.8-187.8 188.8 86.1-10.9 90.9-91.5 10.9-86.4 20.5 92.5-116.2 116.8h0zM509.1 512h0l-100.2-75.5 25-25.3 75.2 100.8zM409 374.4l-37.4 37.8-178.2-199-76.8 17.3L0 113.3 20.5 20.8l10.9 86.4 90.9 91.5 86.1 10.9L20.5 20.8l92.2-20.8 116.5 117.1-17.6 79 197.4 178.6h0z"/></svg>