<svg xmlns="http://www.w3.org/2000/svg" viewBox="0 0 512 512"><path d="M443.5 441.3h-1.9c-25.6 0-45.1-36.2-57-66.2c-8.3-21.4-15-43.8-19.8-66.2H146.9c-5.1 22.7-11.5 44.8-19.8 66.2c-11.8 30.1-31.4 66.2-57 66.2h-1.9c-17.6 1-34.6-6.1-46.4-19.2C7 404.8 0 376 0 333.8c1.3-37.4 4.8-74.6 10.6-111.7c1.6-10.2 2.9-19.5 3.8-28.2c2.2-35.2 16-68.8 39-95.7c17.9-18.2 42.6-28.2 67.8-27.5h269.1c25.6-.6 50.2 9.3 67.8 27.5c23 26.9 36.8 60.5 39 95.7c1.3 9 2.6 18.2 3.8 28.2h0c6.1 37.1 9.6 74.2 10.6 111.7c0 42.2-7 71-22.1 88.6c-11.8 13.1-28.8 20.2-46.4 19.2zm-73-317.8c-39 0-70.7 31.7-70.7 70.7s31.7 70.7 70.7 70.7 70.7-31.7 70.7-70.7-31.7-70.7-70.7-70.7zM88 176.6c-9.6 0-17.6 8-17.6 17.6s8 17.6 17.6 17.6h35.2V247c0 9.6 8 17.6 17.6 17.6s17.6-8 17.6-17.6v-35.2h35.2c9.6 0 17.6-8 17.6-17.6s-8-17.6-17.6-17.6h-35.2v-35.2c0-9.6-8-17.6-17.6-17.6s-17.6 8-17.6 17.6v35.2H88zm282.6 52.8c-19.5 0-35.2-15.7-35.2-35.2s15.7-35.2 35.2-35.2 35.2 15.7 35.2 35.2-15.7 35.2-35.2 35.2z"/></svg>