<svg xmlns="http://www.w3.org/2000/svg" viewBox="0 0 512 512"><path d="M256 512C114.6 512 0 397.4 0 256S114.6 0 256 0s256 114.6 256 256c0 67.8-26.9 133.1-74.9 181.1c-48 48.3-113 75.2-181.1 74.9zm0-79.4c-14.7 0-26.6 11.8-26.6 26.6s11.8 26.6 26.6 26.6 26.6-11.8 26.6-26.6-11.8-26.6-26.6-26.6zm97-26.6c-14.7 0-26.6 11.8-26.6 26.6s11.8 26.6 26.6 26.6 26.6-11.8 26.6-26.6-11.8-26.6-26.6-26.6zm-193.9 0c-14.7 0-26.6 11.8-26.6 26.6s11.8 26.6 26.6 26.6 26.6-11.8 26.6-26.6-11.8-26.6-26.6-26.6zm256-61.8c-14.7 0-26.6 11.8-26.6 26.6s11.8 26.6 26.6 26.6 26.6-11.8 26.6-26.6-11.8-26.6-26.6-26.6zM97 344.3c-14.7 0-26.6 11.8-26.6 26.6s11.8 26.6 26.6 26.6 26.6-11.8 26.6-26.6-11.8-26.6-26.6-26.6zm212.2-9c-14.7 0-26.6 11.8-26.6 26.6s11.8 26.6 26.6 26.6 26.6-11.8 26.6-26.6-11.8-26.6-26.6-26.6zm-106.2 0c-14.7 0-26.6 11.8-26.6 26.6s11.8 26.6 26.6 26.6 26.6-11.8 26.6-26.6-11.8-26.6-26.6-26.6zM450.2 256c-14.7 0-26.6 11.8-26.6 26.6s11.8 26.6 26.6 26.6 26.6-11.8 26.6-26.6-11.8-26.6-26.6-26.6zm-88.3 0c-14.7 0-26.6 11.8-26.6 26.6s11.8 26.6 26.6 26.6 26.6-11.8 26.6-26.6-11.8-26.6-26.6-26.6zm-211.8 0c-14.7 0-26.6 11.8-26.6 26.6s11.8 26.6 26.6 26.6 26.6-11.8 26.6-26.6-11.8-26.6-26.6-26.6zm-88.3 0c-14.7 0-26.6 11.8-26.6 26.6s11.8 26.6 26.6 26.6 26.6-11.8 26.6-26.6-11.8-26.6-26.6-26.6zm370.9-88.3c-14.7 0-26.6 11.8-26.6 26.6s11.8 26.6 26.6 26.6 26.6-11.8 26.6-26.6-11.8-26.6-26.6-26.6zm-353.3 0c-14.7 0-26.6 11.8-26.6 26.6s11.8 26.6 26.6 26.6 26.6-11.8 26.6-26.6-11.8-26.6-26.6-26.6z"/></svg>