<svg xmlns="http://www.w3.org/2000/svg" viewBox="0 0 512 512"><path d="M494.7 163.2l-49.3-7.4-21.4 72 .6 2.6 19.2 98.9 53.8 13.1h0c20.8-58.2 19.5-121.6-2.6-179.2zm-420.5 23l-60.2-13.1C-4.5 226.9-5.1 287.4 16.3 345l43.5 8 29.8-87.7-15.4-79zM136 30.1C88.3 55.4 51.2 94.4 27.8 140.2l56.6 12.2 65.3-65.3-14.1-57zM342.7 15C286.7-5.1 225-5.1 169 15.4l14.7 59.8 85.1 14.7 82.6-28.2-8.3-46.4zM382.1 33l5.4 30.1 57 57 31.7 4.8h0c-22.7-38.4-55.4-70.1-93.8-91.8zM367.4 93.1l-70.4 24 21.8 75.8 73 18.6h0l21.8-72.3-46.1-46.1zm-105 31.4l-85.1-14.4-68.8 68.8 16 82.9 81.3 20.8 79-79-22.7-78.7zM391.7 248l-81.3-20.8-79 79 22.7 78.7 85.1 14.7 68.8-68.5-16.3-82.9zM197.8 316.5l-81.3-20.8-25 73.6 46.1 46.1 81.6-24.6-21.1-74.2zM118.1 446.1l-57-56.6-26.9-4.8c21.4 36.8 51.5 67.8 88 89.9h0s-4.2-28.5-4.2-28.5zm309.1-84.5l-68.5 68.5 12.2 55c6.4-3.2 13.1-7 19.5-10.9c39-24.3 71-58.6 92.5-99.2l-55.4-13.4zm-104 71l-81.3-14.1 .6 1.9-88.3 26.6 7 46.4c30.1 12.2 62.4 18.2 95 18.2c27.5 0 55-4.5 81.3-13.1l-14.1-65.9z"/></svg>