<svg xmlns="http://www.w3.org/2000/svg" viewBox="0 0 512 512"><path d="M273 512c-1.9-2.2-192-215.7-192-320c0-17.9 2.6-35.5 7.4-52.8L24 74.9 57.9 41 252.2 235.2h0l24 24 74.6 74.6h0l34.6 34.6h0l102.4 102.4-33.9 33.9-97-97c-42.2 57-81.9 101.8-84.2 104h0zM129 192c0 15.4 8.3 62.4 86.4 171.2c17.3 24 36.8 49.3 57.6 74.9c17.9-21.8 34.6-43.5 49.9-64L223 274.2c-13.1-8-24-18.9-32-32l-61.4-61.4c-.3 3.8-.6 7.4-.6 11.5h0zM412.2 327l-34.9-34.9c21.4-29.8 34.9-64 40-100.2c0-79.7-64.6-144-144-144c-37.1 0-73 14.4-99.8 40.3l-33.9-33.9c76.2-73.9 197.4-72.3 271.4 3.8c34.9 35.8 54.4 83.8 54.4 133.8c-6.1 48.6-24.3 95.4-52.8 135.4h0zm-69.4-69.1L308.8 224c17.6-19.8 15.7-50.2-4.5-67.8c-18.2-16-45.4-16-63.4 0L207 122.2c38.1-36.8 98.9-35.8 135.7 2.2c36.2 37.1 36.2 96.3 0 133.4h0z"/></svg>