<svg xmlns="http://www.w3.org/2000/svg" viewBox="0 0 512 512"><path d="M194.6 467.8c-4.5 0-9-.6-13.4-1.3c-4.5-1-9-2.2-13.4-3.8c-4.2-1.6-8-3.5-11.8-5.8c-3.2-1.9-6.1-4.5-8.6-7L3.5 277.8c-1.9-1.9-2.9-4.2-3.2-7c0-1.9 .6-4.2 1.9-5.4c1.9-1.9 4.2-3.2 6.7-3.8c3.5-1 7-1.3 10.6-1.3h11.8l98.6 117.1c2.6 2.9 5.4 5.1 8.6 7c3.8 2.2 7.7 4.2 11.8 5.8c4.5 1.6 9 2.9 13.4 3.8s9 1.3 13.4 1.3h0l284.2-1 47 53.8c1.9 1.9 3.2 4.5 3.8 7c.3 1.9 0 4.2-1.6 5.8c-1.6 1.9-3.8 3.2-6.4 3.8c-3.5 1-7 1.6-10.9 1.6l-298.2 1h0zm0-107.8c-4.5 0-9-.6-13.4-1.3c-4.5-1-9-2.2-13.4-3.8c-4.2-1.6-8-3.5-11.8-5.8c-3.2-1.9-6.1-4.5-8.6-7L3.5 169.9c-1.9-1.9-2.9-4.2-3.2-7c0-1.9 .6-4.2 1.9-5.4c1.9-1.9 4.2-3.2 6.7-3.8c3.5-1 7-1.3 10.6-1.3h11.8l98.6 117.1c2.6 2.9 5.4 5.1 8.6 7c3.8 2.2 7.7 4.2 11.8 5.8c4.5 1.6 9 2.9 13.4 3.8s9 1.3 13.4 1.3h0l284.2-1 47 53.8c1.9 1.9 3.2 4.5 3.8 7c.3 1.9 0 4.2-1.6 5.8c-1.6 1.9-3.8 3.2-6.4 3.8c-3.5 1-7 1.6-10.9 1.6l-298.2 1h0zM181.1 250.2c-4.5-1-9-2.2-13.4-3.8c-4.2-1.6-8-3.5-11.8-5.8c-3.2-1.9-6.1-4.5-8.6-7L3.5 61.8c-1.9-1.9-2.9-4.2-3.2-7c0-1.9 .6-4.2 1.9-5.4c1.9-1.9 4.2-3.2 6.7-3.8c3.5-1 7.4-1.3 10.9-1.3l293.8 1.6c4.5 0 8.6 .6 13.1 1.3c4.5 1 8.6 2.2 13.1 3.8c3.8 1.6 7.7 3.5 11.5 5.4c3.2 1.9 5.8 4.2 8.3 6.7l148.5 169.3c1.9 1.9 3.2 4.5 3.8 7c.3 1.9 0 4.2-1.6 5.8c-1.6 1.9-3.8 3.2-6.4 3.8c-3.5 1-7 1.6-10.9 1.6l-298.2 1h0c-4.5 0-9-.3-13.4-1.3h0z"/></svg>