<svg xmlns="http://www.w3.org/2000/svg" viewBox="0 0 448 512"><path d="M16 256C16 141.1 109.1 48 224 48s208 93.1 208 208-93.1 208-208 208s-208-93.1-208-208zM245.4 410.6v20.2c33.6-4.2 65.3-17.9 91.2-39.4l-13.8-13.8 22.7-22.7 13.8 13.8c22.7-27.5 36.8-61.1 40-96.6h-37.1v-32h37.1c-3.2-35.5-17.3-69.1-40-96.6l-13.8 13.8-22.7-22.7 13.8-13.8C310.7 98.9 279 85.1 245.4 81v25.9h-42.6V81c-33.6 4.2-65.3 17.9-91.2 39.7l13.8 13.8-22.7 22.7-13.8-13.8c-22.7 27.2-36.8 61.1-40 96.6h37.1v32H49c3.2 35.5 17.3 69.1 40 96.6l13.8-13.8 22.7 22.7-13.8 13.8c25.9 21.8 57.6 35.5 91.2 39.7v-20.2h42.6zM134.1 349.1c-4.8-4.5-6.4-11.2-4.2-17.3L175 211.2c1.6-4.2 5.1-7.7 9.3-9.3L305 156.8c8.3-3.2 17.6 1 20.5 9.3c1.6 4.2 1.3 8.3-.3 12.5l-52.8 113c-1.6 3.5-4.5 6.1-7.7 7.7l-113 52.8c-5.8 2.9-12.8 1.6-17.6-2.9h0zm68.5-120l-28.8 77.1 72.3-33.9 33.9-72.3-77.1 29.1z"/></svg>