<svg xmlns="http://www.w3.org/2000/svg" viewBox="0 0 448 512"><path d="M324.2 159.7l23.4 21.8-138.6 149.4c-2.9 3.2-7.4 5.1-11.8 5.1c-3.2 0-6.7-1-9.3-2.9l-74.6-53.4 18.6-25.9 63.4 45.1 129-138.9zm66.6 162.9c-40.6 98.2-157.1 144-162.2 145.9c-2.9 1.3-6.4 1.3-9.3 0c-4.8-1.9-121.6-47.7-162.2-145.9c-39.7-96.6-20.8-218.9-19.8-224.3c1-7 6.7-12.5 14.1-12.8h345.6c7 0 13.1 5.8 14.1 12.8c1 5.1 19.8 127.7-20.2 224.3zm-6.4-206.1H63.7c-3.5 33-9.6 122.6 19.5 193.3c31.4 75.8 119.4 118.1 140.8 127.4c19.5-8.6 38.1-18.9 55.4-30.7c37.1-23.4 66.6-57 85.4-96.6c29.1-70.7 23-160.3 19.5-193.3z"/></svg>