<svg xmlns="http://www.w3.org/2000/svg" viewBox="0 0 512 512"><path d="M256 0C114.6 0 0 114.6 0 256s114.6 256 256 256h.6c67.5 0 132.5-26.9 180.2-74.9c48-48 74.9-113.3 74.9-181.1C512 114.6 397.4 0 256 0zm0 464c-56 0-107.2-22.4-144.6-58.9c40.3-30.7 90.2-49 144.6-49s104.6 18.6 144.6 49C362.2 442.6 310.1 464 256 464zm176.3-97.6c-50.9-37.1-112-57.3-174.7-57.3c-.6 0-1 0-1.6 0s-1 0-1.6 0c-62.7 0-123.8 20.2-174.7 57.3c-20.2-32-32-69.8-32-110.4c0-55.7 21.8-107.8 60.8-147.2S200 48 255.7 48c114.6 0 208 93.4 208 208c0 39.7-11.2 77.4-31.7 110.4zM256 87c-48.6 0-88.3 39.7-88.3 88.3s39.7 88.3 88.3 88.3 88.3-39.7 88.3-88.3s-39.7-88.3-88.3-88.3zm0 128.6c-22.1 0-40.3-17.9-40.3-40.3S233.6 135 256 135c22.1 0 40.3 18.2 40.3 40.3s-17.9 40.3-40.3 40.3z"/></svg>