<svg xmlns="http://www.w3.org/2000/svg" viewBox="0 0 448 512"><path d="M322.9 425.6l-105.3-66.6-59.2 45.4c-7 5.4-17 4.2-22.4-2.9c-2.2-2.9-3.5-6.4-3.2-9.9v-82.2s-1.3-1.9-1.6-3.2l-107.5-65c-7.7-4.5-9.9-14.4-5.4-22.1c1.9-3.2 5.1-5.8 8.6-6.7l384-127.7c5.4-1.9 11.8-.6 16 3.5s6.1 10.2 4.5 16L346.9 416c-1.3 4.8-4.8 9-9.6 10.6c-1.9 .6-3.8 1-5.8 1c-2.9 0-6.1-.6-8.6-2.2zm-97.6-99.5l96.3 60.8 66.9-246.1c-49.9 36.8-137.3 101.8-183.4 136l-26.6 19.8 43.2 27.8s2.6 1 3.8 1.6h0zm-60.5 33.3l23.7-18.2-23.7-15.4v33.6zM70.1 232l78.1 47.4c7.4-5.4 19.2-14.1 38.1-28.2l140.5-104L70.1 232z"/></svg>