<svg xmlns="http://www.w3.org/2000/svg" viewBox="0 0 448 512"><path d="M122.2 426.2c-30.7-21.8-55.7-50.9-72.6-84.5c-3.8-7.7-1-17.3 6.7-21.4c104.3-57.3 230.7-57.3 335.4 0c7.7 4.2 10.6 13.8 6.7 21.4c-17 33.6-41.9 62.7-72.6 84.5c-60.8 43.5-142.7 43.5-203.5 0h0zM86.1 341.1c37.8 76.2 129.9 107.5 206.1 69.8c30.4-15 54.7-39.4 69.8-69.8c-87-42.2-188.8-42.2-275.8 0zm47.4-186.6c0-49.9 40.6-90.6 90.6-90.6s90.6 40.6 90.6 90.6-40.6 90.6-90.6 90.6h0c-49.9 0-90.6-40.6-90.6-90.6zm32 0c0 32.3 26.2 58.6 58.6 58.6s58.6-26.2 58.6-58.6s-26.2-58.6-58.6-58.6s-58.6 26.2-58.6 58.6z"/></svg>