<svg xmlns="http://www.w3.org/2000/svg" viewBox="0 0 640 512"><path d="M220.5 476.5C98.6 476.5 0 377.6 0 256C0 134.1 98.9 35.5 220.5 35.5c58.6 0 114.6 23.4 155.8 64.6c3.8 3.8 7.7 8 11.2 12.2c-14.1 10.9-26.6 23.7-37.4 38.1c-58.6-71.7-164.2-82.6-235.8-24.3c-71.7 58.6-82.6 164.2-24.3 235.8c58.6 71.7 164.2 82.6 235.8 24.3c6.1-4.8 11.8-10.2 17.3-16c9.6 15 21.4 28.5 34.9 40.3l-1.3 1.3h-.3c-41.3 41.9-97.3 65.3-155.8 65zm-13.8-91.8v-41.3h-50.6v-27.5h105.6v-46.1h-96.6c-7.7 0-13.8-6.1-13.8-13.8h0v-73.6c0-7.7 6.1-13.8 13.8-13.8h41.3v-41.3h27.5v41.3h50.6v27.5H178.9v46.1h96.6c7.7 0 13.8 6.1 13.8 13.8v73.6c0 7.7-6.1 13.8-13.8 13.8h-41.3v41.3h-27.5zM602.9 174.7c-51.8-55.7-139.2-58.9-194.9-6.7c-25.9 25.9-40.3 60.8-40.3 97.3c0 76.2 61.8 137.9 137.6 137.9c36.5 0 71.7-14.4 97.3-40.3c49.3-52.8 49.3-135 0-187.8zM574.4 282.6h-51.8v51.8H488v-51.8h-51.8V248H488v-51.8h34.6V248h51.8v34.6z"/></svg>