<svg xmlns="http://www.w3.org/2000/svg" viewBox="0 0 512 512"><path d="M144 300.8c-32-64-16-160-16-160l128-16 128 16s16 96-16 160-112 96-112 96s-80-32-112-96zm-4.5-148.5c-1.6 14.7-2.6 29.8-2.6 44.5c0 16.6 1.3 33.3 3.8 49.9s7.7 33 14.7 48.3c7.4 14.4 17 27.2 28.5 38.4c10.6 10.6 22.4 20.2 34.9 28.2c11.8 8 24.3 15 37.4 21.1c17-7.7 75.5-37.4 100.5-87.7c7.4-15.4 12.2-31.4 14.7-48c2.6-16.3 3.8-33 3.8-49.6c0-15-1-30.1-2.6-45.1l-116.5-14.7-116.8 14.7zM175 246.4c0-44.2 35.8-80 80-80s80 35.8 80 80-35.8 80-80 80h0c-44.2 0-80-35.8-80-80zm80 67.2c37.1 0 67.2-30.1 67.2-67.2c0-15-5.1-29.4-14.1-41.3l-94.4 94.4c11.8 9.3 26.2 14.1 41.3 14.1zM207.7 199c-25 25-26.2 65-3.2 91.8l94.7-94.7c-26.6-23.4-66.6-21.8-91.8 3.2h0z"/></svg>