<svg xmlns="http://www.w3.org/2000/svg" viewBox="0 0 512 512"><path d="M209.6 364.5c-6.1-1.9-11.8-5.1-16.6-9.3c-8-5.8-9.9-17.3-4.2-25.3c1.3-1.6 2.6-2.9 4.2-4.2c5.1-4.2 10.6-7.4 16.6-9.3c2.2-1 4.5-1.6 7-2.2c2.9 3.5 6.1 7 9.6 10.9c-4.2 1-8 2.2-11.8 3.5c-8 2.9-16 7.7-16 12.2s8 9.3 16 12.2c30.1 9.6 62.7 9.6 92.8 0c8-2.9 16-8 16-12.2s-8-9.3-16-12.2c-3.8-1.3-8-2.6-11.8-3.5c3.2-3.5 6.4-7 9.6-10.9c2.6 .6 4.8 1.6 7 2.2c6.1 2.2 11.8 5.1 16.6 9.3c8 5.8 9.9 17.3 4.2 25.3c-1.3 1.6-2.6 2.9-4.2 4.2c-5.1 4.2-10.6 7.4-16.6 9.3c-33 10.6-68.8 10.6-101.8 0zm50.9-25.3l-4.2-3.5c-11.8-10.6-23-21.8-33.6-33.9c-9-10.2-16.6-21.1-23.4-32.6c-7.4-13.1-11.2-25.3-11.2-35.8c0-10.2 1.9-20.5 5.8-30.4c1.9-4.5 4.2-8.6 7-12.8l-27.5-27.5 9-9 26.9 26.9 33.9 33.9 45.1 45.1 50.2 50.2-9 9-25-25c-1.9 2.6-4.2 5.1-6.4 8c-10.2 12.2-21.4 23.4-33.6 33.9l-4.2 3.5h0zM201.3 233.3c0 15.4 10.9 36.5 31.4 60.2c8.6 10.2 17.9 19.8 27.8 28.8c9.9-9 19.2-18.6 28.2-28.8c2.6-2.9 4.8-5.8 7-8.6l-17.9-17.9c-19.5 8.6-42.2-.3-50.6-19.8c-4.2-9.9-4.2-21.1 0-30.7l-16.6-16.6c-6.1 10.2-9.3 21.8-9 33.9h0zm35.2-1.6c0 14.1 11.5 25.6 25.6 25.6c1.9 0 3.5 0 5.4-.6l-30.4-30.4c-.3 1.9-.6 3.5-.6 5.4h0zm83.2 41l-9.3-9.3c6.4-11.5 9.6-21.4 9.6-30.1c0-17.9-6.1-33.3-17.3-43.8c-5.4-5.1-11.8-9-18.6-11.5c-15-5.4-31.7-5.4-46.7 0c-2.9 1-5.8 2.2-8.3 3.8l-9.3-9.3c4.2-2.6 8.6-4.8 13.1-6.4c17.9-6.4 37.4-6.4 55.4 0c8.6 3.2 16.3 8 23 14.1c6.7 6.4 12.2 14.1 15.7 22.7c3.8 9.6 5.8 19.8 5.8 30.4s-3.8 22.7-10.9 35.8c-.6 1-1.3 2.2-1.9 3.5h0zm-23.4-23.4l-9.6-9.6c4.5-13.4-2.9-27.8-16.3-32.3c-5.1-1.6-10.6-1.6-15.7 0l-9.9-9.9c18.9-9.6 41.9-2.2 51.8 16.6c2.9 5.4 4.2 11.5 4.2 17.6s-1.6 12.2-4.2 17.6h0z"/></svg>