<svg xmlns="http://www.w3.org/2000/svg" viewBox="0 0 512 512"><path d="M389.1 512a11.4 11.4 0 1 1 0-22.8h50.3a49.9 49.9 0 0 0 49.9-49.9V389.1a11.4 11.4 0 1 1 22.8 0v50.3A72.6 72.6 0 0 1 439.4 512zM72.6 512A72.7 72.7 0 0 1 0 439.4V389.1a11.4 11.4 0 1 1 22.8 0v50.3a50 50 0 0 0 49.9 49.9h50.3a11.4 11.4 0 1 1 0 22.8zm189.5-54.4V53.8a8.4 8.4 0 0 1 16.8 0v21.9a227.7 227.7 0 0 1 107.7 27.6 8.9 8.9 0 0 1 4.3 5.4 9.2 9.2 0 0 1 -.7 6.9 9 9 0 0 1 -7.7 4.7 7.3 7.3 0 0 1 -4.1-1 209.6 209.6 0 0 0 -99.5-25.4v25.6a205.9 205.9 0 0 1 46.3 5.5 208.5 208.5 0 0 1 45.4 16.4 188.8 188.8 0 0 1 37.3 25.2 181.9 181.9 0 0 1 30 33.3 9.1 9.1 0 0 1 -2.3 12.6 9 9 0 0 1 -5.1 1.6 9.1 9.1 0 0 1 -7.3-3.6 165.3 165.3 0 0 0 -27.3-30.1 177 177 0 0 0 -33.6-22.8 189.2 189.2 0 0 0 -83.5-19.8v24.8a155.6 155.6 0 0 1 28.8 2.9 151.4 151.4 0 0 1 53 21.2 149.9 149.9 0 0 1 22 17.2 146.5 146.5 0 0 1 18.1 20.9 139.8 139.8 0 0 1 13.7 23.9 133.5 133.5 0 0 1 11.7 54.7 55.4 55.4 0 0 1 -55 52.9l-2.8 0a55.3 55.3 0 0 1 -52.8-52.7 37.6 37.6 0 0 0 -36.7-34.7v26.1a9.1 9.1 0 0 1 7.1 8.8 75.7 75.7 0 0 0 9.3 36.4 77.9 77.9 0 0 0 25.6 27.6 80.4 80.4 0 0 0 43.4 12.8l2.3 0a124 124 0 0 0 18.8-1.8 9.6 9.6 0 0 1 1.8-.2 8.6 8.6 0 0 1 5.6 2.1 9.6 9.6 0 0 1 3.2 5.3 8.6 8.6 0 0 1 -1.4 6.7 9.6 9.6 0 0 1 -5.9 3.8 123.5 123.5 0 0 1 -21.8 2.1l-.3 0h-2.3a97.5 97.5 0 0 1 -27.9-4.1 95.1 95.1 0 0 1 -57.6-47.4v42a123.4 123.4 0 0 0 24.8 17.7 117.3 117.3 0 0 0 29.7 11.2 9 9 0 0 1 5.5 4.2 9.2 9.2 0 0 1 .9 6.9 8.9 8.9 0 0 1 -3 4.9 8.7 8.7 0 0 1 -5.5 2l-.8-.4a10.7 10.7 0 0 1 -2.3-.3 141.5 141.5 0 0 1 -26.3-9.2 143.2 143.2 0 0 1 -22.9-13.4v45a8.4 8.4 0 1 1 -16.8 0zM279 250.9h1.5a55.3 55.3 0 0 1 52.6 52.7 37.6 37.6 0 0 0 37.3 34.8c.9 0 1.9 0 2.8 0a37 37 0 0 0 23.7-10.9 38.2 38.2 0 0 0 11-23.7A116 116 0 0 0 397.6 256a121.2 121.2 0 0 0 -11.9-20.9 125.9 125.9 0 0 0 -15.8-18.1 129.9 129.9 0 0 0 -19.2-15 132.5 132.5 0 0 0 -22-11.3 136.3 136.3 0 0 0 -49.6-9.8v25.4a104.5 104.5 0 0 1 56.1 16.5 103.7 103.7 0 0 1 15.1 11.8 99.4 99.4 0 0 1 12.4 14.3 96 96 0 0 1 9.4 16.4 91.9 91.9 0 0 1 8 37.7 9 9 0 0 1 -18 0 81.4 81.4 0 0 0 -83.2-78.8zM192.2 431.3a154.3 154.3 0 0 1 -19.2-6.4 138 138 0 0 1 -19.6-10 105.6 105.6 0 0 1 -33.9-32.9 99.4 99.4 0 0 1 -11.1-24 118.8 118.8 0 0 1 -5-29.8 54.4 54.4 0 0 1 -12.3-8.8 52.4 52.4 0 0 1 -9.1-11.6 55.9 55.9 0 0 1 -5.7-14 63.7 63.7 0 0 1 -2-16 9.2 9.2 0 1 1 18.5 0 36.8 36.8 0 0 0 23 35.8l5.9 2.3v6.4c0 92.5 100.5 95.1 101.5 95.1a9.1 9.1 0 0 1 4.4 1.1v16.3a9.6 9.6 0 0 1 -4.4 1.1 130.2 130.2 0 0 1 -31.1-4.6zm-71-165.7a9.3 9.3 0 0 1 -8.7-9.6 72.6 72.6 0 0 1 26-49.3V171.6l4.8-2.8a9 9 0 0 1 4.5-1.3 23.8 23.8 0 0 1 11.3 4.9 281.2 281.2 0 0 0 25.2 14 246.4 246.4 0 0 0 43.4 16v19.2a263.9 263.9 0 0 1 -42.4-14.5 261.9 261.9 0 0 1 -28.3-14.5v23.5l-4.1 2.7a48 48 0 0 0 -12 11.7 53.8 53.8 0 0 0 -6.6 12.3 52.2 52.2 0 0 0 -3.2 13.9 9.2 9.2 0 0 1 -9.5 8.9zm-34.8-44V161.4a84.9 84.9 0 0 1 16.7-38.1 104.4 104.4 0 0 1 31.3-26.6A155.5 155.5 0 0 1 175 81 198.9 198.9 0 0 1 219.3 75.7h1.8c2.2 0 4.4 0 6.4 0V92.8c-2.2 0-4.4 0-6.4 0h-1.7c-50.3 .4-108.2 22.6-116.4 70.4l0 58.8a8.4 8.4 0 0 1 -16.8 0zm402.8-98.6V72.6A50 50 0 0 0 439.4 22.8H389.1a11.4 11.4 0 1 1 0-22.8h50.3A72.7 72.7 0 0 1 512 72.6v50.3a11.4 11.4 0 1 1 -22.8 0zM0 122.9V72.6A72.6 72.6 0 0 1 72.6 0h50.3a11.4 11.4 0 0 1 0 22.8H72.6A49.9 49.9 0 0 0 22.8 72.6v50.3a11.4 11.4 0 1 1 -22.7 0z"/></svg>