<svg xmlns="http://www.w3.org/2000/svg" viewBox="0 0 512 512"><path d="M256 256c9 0 18.6 3.8 29.1 10.9c4.5 3.2 8.6 6.7 12.5 10.6l-9.3 9c-3.5-3.2-7-6.4-10.9-9.3c-8-5.4-15.4-8.6-21.4-8.6c-7.7 0-15.7 4.8-21.1 8.6c-3.5 2.6-7 5.8-10.2 9l-9.6-8.6c3.8-3.8 7.7-7.4 12.2-10.6c9.9-7.4 19.5-11.2 28.5-11.2zm52.5-51.8c7.7 0 14.1 6.4 14.1 14.1s-6.4 14.1-14.1 14.1-14.1-6.4-14.1-14.1 6.4-14.1 14.1-14.1zm-104.6 0c7.7 0 14.1 6.4 14.1 14.1s-6.4 14.1-14.1 14.1-14.1-6.4-14.1-14.1 6.4-14.1 14.1-14.1zM419.2 348.8H92.8c-3.5 0-6.4-2.9-6.4-6.4V128c0-3.5 2.9-6.4 6.4-6.4h326.4c3.5 0 6.4 2.9 6.4 6.4v214.4c0 3.5-2.9 6.4-6.4 6.4zM99.2 336h313.6V134.4H99.2V336zm230.4 51.2H182.4V400h147.2v-12.8z"/></svg>