<svg xmlns="http://www.w3.org/2000/svg" viewBox="0 0 512 512"><path d="M394.9 512H117.1c2.9-69.8 13.1-139.2 30.4-207h89l-48 97.6 31.7 15.7 36.5-74.2 57.9 117.8 31.7-15.7-55.7-113-13.8-28.2h87.4c17.3 67.8 27.5 137.3 30.4 207h0zM365.4 269.4H189.1L356.2 0h20.5c28.8 0 64 38.4 88.6 70.7c17 22.7 32.6 46.4 47 70.7l-64.6 74.2-70.7-59.2-11.2 113h0zm-217.6 0h-1.3l-11.2-113.3-70.7 59.2L0 141.4h0C14.1 116.8 29.8 93.1 46.7 70.7C71.4 38.4 106.6 0 135.4 0h32.3c25.6 44.8 57.6 100.5 70.4 123.5l-90.2 146.2h0zM259.5 89.3h0c-11.2-19.8-27.8-49-50.9-89.3h105.9l-55 89h0z"/></svg>