<svg xmlns="http://www.w3.org/2000/svg" viewBox="0 0 512 512"><path d="M412.2 511.7c-12.8 0-25.3-1.6-37.8-3.8l-260.5-90.2C17 369.6 0 343.4 0 243.5c0-32.6 6.7-65 19.5-94.7c12.5-29.1 30.7-55.4 53.4-77.4c23-22.4 49.9-40 79.4-52.2c78.4-32 167.4-23.4 238.1 23.4c40.3 26.6 71.7 64.6 90.2 109.1c4.5 7.7 8 16 10.6 24.6H279c-10.2 2.6-19.8 6.7-28.5 12.2c-18.9 11.8-30.4 33-30.1 55c1 33.3 24.3 61.4 56.6 69.1L512 405.8v8c0 38.7-9.9 65-29.4 80.3c-21.1 13.1-45.8 19.2-70.4 17.3zM150.1 211.8c-14.7 0-26.6 11.8-26.6 26.6s11.8 26.6 26.6 26.6 26.6-11.8 26.6-26.6-11.8-26.6-26.6-26.6zM511.7 368.3h0L289 280h-1s-1.3-.6-1.3-.6c-6.1-1.9-11.8-4.8-17-8.3c-9-6.1-14.1-16-14.1-26.9c-.3-10.2 4.8-19.8 13.4-25.3c4.8-3.2 9.9-5.4 15.4-7h215.4c3.8 21.8 6.4 43.5 8 65.6c2.2 26.9 3.2 56.3 3.8 90.9h0z"/></svg>