<svg xmlns="http://www.w3.org/2000/svg" viewBox="0 0 512 512"><path d="M348.5 118.4c-11.5 0-23 4.5-32 13.1l-185 185c-17.6 17.6-17.6 46.4 0 64c9 9 20.5 13.1 32 13.1s23-4.5 32-13.1l185-185c17.6-17.6 17.6-46.4 0-64c-9-9-20.5-13.1-32-13.1zM466.2 45.8c-59.8-59.8-157.4-59.8-217.3 0L45.8 249c-59.8 59.8-59.8 157.4 0 217.3s157.4 59.8 217.3 0L466.2 263c59.8-59.8 59.8-157.4 0-217.3zm-63 172.5l-185 185c-14.7 14.7-33.9 22.7-54.7 22.7s-40-8-54.7-22.7c-30.1-30.1-30.1-79 0-109.1l185-185c14.7-14.7 33.9-22.7 54.7-22.7s40 8 54.7 22.7s22.7 33.9 22.7 54.7s-8 40-22.7 54.7zM192.6 57L124.8 34.2 34.2 124.8 57 192.6 192.6 57z"/></svg>