<svg xmlns="http://www.w3.org/2000/svg" viewBox="0 0 512 512"><path d="M149.8 512h0c-37.8 0-75.2-5.8-111-17.6h0c26.6-60.5 60.2-117.4 99.8-169.9c4.8-6.7 9.9-13.4 15-19.8l22.7 22.7c7 7 17.9 7 25 0c0 0 0 0 0 0c7-7 7-18.2 0-25.3l-25-25.3c5.4-6.1 10.2-11.8 15-17l19.5 19.8c6.7 7 17.9 7 25 0c0 0 0 0 0 0c7-7 7-18.2 0-25.3l-20.2-20.5c5.1-5.1 10.2-10.2 15.4-15.4l21.1 21.1c7 7 17.9 7 25 0c0 0 0 0 0 0c7-7 7-18.2 0-25.3L257 193.9c6.1-5.4 11.8-10.6 17.3-15l24.6 24.6c6.7 7 17.9 7 25 0c0 0 0 0 0 0c6.7-7 6.7-18.2 0-25.3l-22.1-22.1c59.5-46.7 124.8-85.1 194.6-113.9c.3 1 .6 2.2 1 3.2c44.5 148.2-9.9 308.2-135.7 398.1c-61.8 44.2-135.7 68.2-211.5 68.2zM14.1 462.1h0c-55-192.3 56.3-393 248.6-448c66.6-19.2 137-18.6 203.2 1.3c.6 0 1.6 .3 2.2 .6c-68.8 30.1-133.4 68.8-192.3 115.5l-14.1-14.4c-7-7-17.9-7-25 0c0 0 0 0 0 0c-6.7 7-6.7 18.2 0 25.3l11.8 11.8c-5.4 4.8-11.2 9.9-17 15l-16-16.3c-7-7-17.9-7-25 0c0 0 0 0 0 0c-7 7-7 18.2 0 25.3l15.4 15.4c-4.8 4.8-9.9 9.6-15.4 15.4l-16-16.3c-6.7-7-17.9-7-25 0c0 0 0 0 0 0c-6.7 7-6.7 18.2 0 25.3l16.6 17c-4.8 5.4-9.9 10.9-15 17l-11.2-11.5c-7-7-17.9-7-25 0c0 0 0 0 0 0c-6.7 7-6.7 18.2 0 25.3l13.4 13.8c-6.1 7.4-12.2 15.4-18.6 24c-37.1 49.6-69.1 102.7-95.7 158.7h-.3z"/></svg>