<svg xmlns="http://www.w3.org/2000/svg" viewBox="0 0 512 512"><path d="M257 512C115.8 512.6 .6 398.4 0 257C-.6 121.6 104 9 238.7 0c-1 15-7.7 29.1-18.2 40l-74.2 75.2-1.3 1.3c-68.8 70.1-68.2 182.7 1.3 252.2c33 33 78.1 51.5 124.8 51.5h1c47 0 92.2-19.2 125.1-52.8l74.6-74.9c10.6-10.9 25-17.3 40.3-18.2c-9.6 134.1-121 238.1-255 238.1h0zM271 384.6c-37.4 0-73.3-14.7-99.8-41.3c-55.7-55.7-56.3-145.9-1-201.9L245.4 65C262.7 47.7 273 24.3 273.9 0c127.7 8.6 229.4 110.7 238.1 238.7c-24.6 1-47.7 11.2-65.3 28.8l-74.6 74.9h0c-26.6 26.9-62.4 42.2-100.2 42.2h-1z"/></svg>